<svg width="131" height="56" viewBox="0 0 131 56" fill="none" xmlns="http://www.w3.org/2000/svg">
<path fill-rule="evenodd" clip-rule="evenodd" d="M55.7685 27.9831C55.7685 24.5532 55.1184 21.2816 53.9854 18.2469C53.6854 28.2352 43.5331 35.9691 37.5724 41.0869H52.4923C54.5778 37.1791 55.7685 32.7214 55.7685 27.9831ZM44.9825 5.98929C40.2586 2.31143 34.3358 0.0998535 27.8849 0.0998535C12.4842 0.0998535 0 12.584 0 27.9831C0 43.3825 12.4842 55.8667 27.8849 55.8667C34.9365 55.8667 41.3582 53.2283 46.2684 48.9106H26.0807L26.0194 42.9816C38.1834 32.4075 45.6397 25.2565 45.6397 18.349C45.6397 15.7819 44.662 12.542 40.2615 12.542C36.7769 12.542 33.4154 14.5608 34.0264 22.9947H26.9369C25.1636 13.216 30.4816 5.45246 40.6269 5.45246C42.2003 5.45246 43.6551 5.64033 44.9825 5.98929Z" fill="white"/>
<path fill-rule="evenodd" clip-rule="evenodd" d="M81.6131 19.3832H88.2087C88.4341 14.3664 86.7441 6.41699 75.8646 6.41699C67.8588 6.41699 62.0518 11.2097 62.0518 21.1869C62.0518 22.5403 62.1078 29.5302 62.1078 33.8709C62.1078 44.6956 69.6065 47.0625 75.9202 47.0625C79.6974 47.0625 85.1653 46.2167 87.702 43.4547V26.2041H75.2998V32.4619H80.8246V40.0722C76.6523 41.4812 69.042 42.0457 69.042 32.4619V21.1869C69.042 14.4784 72.1431 12.1676 75.5812 12.1676C79.1334 12.1676 81.6131 13.9717 81.6131 19.3832ZM130.673 36.1257C130.955 20.6806 113.255 25.809 113.423 17.1848C113.479 14.141 115.452 12.1676 118.666 12.1676C122.105 12.1676 124.133 14.1971 124.077 19.4969H130.56C130.729 14.7042 129.602 6.53029 118.892 6.53029C112.239 6.53029 106.772 9.80109 106.658 17.0723C106.377 31.8975 124.19 27.05 123.909 36.0137C123.795 39.6775 121.145 41.3119 118.158 41.3119C114.664 41.3119 111.844 39.2824 112.409 33.194H105.868C105.135 41.2559 108.688 47.0064 118.102 47.0064C126.051 47.0064 130.56 42.6084 130.673 36.1257ZM100.892 7.03745H94.2411V46.4981H100.892V7.03745Z" fill="white"/>
</svg>
