<svg width="75" height="75" viewBox="0 0 75 75" fill="none" xmlns="http://www.w3.org/2000/svg">
<path fill-rule="evenodd" clip-rule="evenodd" d="M74.9402 37.0986C74.9402 32.5352 74.0752 28.1823 72.5678 24.1446C72.1688 37.4341 58.6611 47.7241 50.7304 54.5333H70.5813C73.3561 49.334 74.9402 43.403 74.9402 37.0986ZM60.5895 7.83589C54.3044 2.94251 46.4241 0 37.8411 0C17.3504 0 0.740234 16.6102 0.740234 37.0986C0.740234 57.5876 17.3504 74.1978 37.8411 74.1978C47.2233 74.1978 55.7674 70.6874 62.3003 64.9428H35.4407L35.359 57.0542C51.5433 42.9853 61.4638 33.4709 61.4638 24.2806C61.4638 20.865 60.1631 16.5543 54.3082 16.5543C49.6719 16.5543 45.1995 19.2403 46.0124 30.4616H36.5798C34.2205 17.4511 41.2961 7.12164 54.7944 7.12164C56.8878 7.12164 58.8234 7.37161 60.5895 7.83589Z" fill="#A3C400"/>
</svg>
