<svg width="16" height="31" viewBox="0 0 16 31" fill="none" xmlns="http://www.w3.org/2000/svg">
<path d="M15.0394 15.2973C15.0119 14.9806 14.8846 14.6808 14.6758 14.4411L2.66593 0.554632C2.5389 0.39828 2.3817 0.269092 2.20369 0.174762C2.02569 0.0804327 1.83051 0.0228906 1.6298 0.00556335C1.42909 -0.0117639 1.22694 0.0114781 1.03541 0.0739048C0.843868 0.136332 0.666862 0.236667 0.514911 0.368934C0.36296 0.501201 0.239175 0.662695 0.15094 0.843799C0.0627059 1.0249 0.0118169 1.22191 0.00131124 1.42309C-0.0091954 1.62427 0.0209102 1.82551 0.0898007 2.01482C0.158692 2.20412 0.264974 2.37763 0.402323 2.52501L11.5561 15.4263L0.402322 28.3276C0.264972 28.4749 0.158669 28.6484 0.0897767 28.8378C0.0208852 29.0271 -0.00919565 29.2283 0.00131002 29.4295C0.0118157 29.6307 0.0627047 29.8277 0.150939 30.0088C0.239174 30.1899 0.362959 30.3514 0.514909 30.4836C0.666861 30.6159 0.843866 30.7162 1.0354 30.7787C1.22694 30.8411 1.42909 30.8643 1.6298 30.847C1.83051 30.8297 2.02568 30.7721 2.20369 30.6778C2.38169 30.5835 2.5389 30.4543 2.66593 30.2979L14.6758 16.4115C14.8081 16.2596 14.9084 16.0827 14.9708 15.8913C15.0333 15.6999 15.0566 15.4979 15.0394 15.2973Z" fill="white"/>
</svg>
