<svg width="16" height="31" viewBox="0 0 16 31" fill="none" xmlns="http://www.w3.org/2000/svg">
<path d="M0.00549154 15.5553C0.0329979 15.872 0.160303 16.1717 0.369073 16.4114L12.379 30.2979C12.506 30.4543 12.6632 30.5834 12.8412 30.6778C13.0192 30.7721 13.2144 30.8296 13.4151 30.847C13.6158 30.8643 13.818 30.8411 14.0095 30.7786C14.2011 30.7162 14.3781 30.6159 14.53 30.4836C14.682 30.3513 14.8057 30.1898 14.894 30.0087C14.9822 29.8276 15.0331 29.6306 15.0436 29.4294C15.0541 29.2283 15.024 29.027 14.9551 28.8377C14.8862 28.6484 14.7799 28.4749 14.6426 28.3275L3.48884 15.4263L14.6426 2.52498C14.7799 2.3776 14.8863 2.20409 14.9551 2.01479C15.024 1.82548 15.0541 1.62424 15.0436 1.42306C15.0331 1.22188 14.9822 1.02487 14.894 0.843764C14.8057 0.662659 14.682 0.501164 14.53 0.368897C14.3781 0.236628 14.2011 0.136294 14.0095 0.0738661C13.818 0.0114404 13.6158 -0.0118006 13.4151 0.00552575C13.2144 0.022854 13.0192 0.0803987 12.8412 0.17473C12.6632 0.26906 12.506 0.398247 12.379 0.554602L0.369073 14.4411C0.236853 14.5929 0.136536 14.7698 0.0740754 14.9612C0.0116143 15.1526 -0.0117151 15.3547 0.00549154 15.5553Z" fill="white"/>
</svg>
