<svg width="32" height="32" viewBox="0 0 32 32" fill="none" xmlns="http://www.w3.org/2000/svg">
<path d="M27.3137 4.68625C24.2917 1.66431 20.2738 0 16 0C11.7262 0 7.70831 1.66431 4.68625 4.68625C1.66431 7.70831 0 11.7262 0 16C0 20.2738 1.66431 24.2917 4.68625 27.3137C7.70831 30.3357 11.7262 32 16 32C18.9258 32 21.7886 31.2026 24.2789 29.6942C24.8693 29.3364 25.0581 28.5678 24.7004 27.9774C24.3426 27.3868 23.5739 27.1982 22.9836 27.5559C20.884 28.8278 18.4691 29.5 16 29.5C8.55606 29.5 2.5 23.4439 2.5 16C2.5 8.55606 8.55606 2.5 16 2.5C23.4439 2.5 29.5 8.55606 29.5 16C29.5 18.6618 28.7084 21.2528 27.2109 23.4928C26.8272 24.0666 26.9814 24.8429 27.5553 25.2266C28.1292 25.6104 28.9055 25.4561 29.2891 24.8822C31.0626 22.2296 32 19.1581 32 16C32 11.7262 30.3357 7.70831 27.3137 4.68625Z" fill="#0764E3"/>
<path fill-rule="evenodd" clip-rule="evenodd" d="M11.8511 9.4593C12.733 8.9513 13.7852 8.95305 14.6656 9.46392L21.7186 13.5565C22.5986 14.0672 23.1241 14.9807 23.1241 16C23.1241 17.0193 22.5986 17.9327 21.7186 18.4434L14.6656 22.536C14.2241 22.7922 13.7392 22.9205 13.2544 22.9205C12.7725 22.9205 12.2908 22.794 11.8511 22.5407C10.9659 22.031 10.4375 21.1159 10.4375 20.0927V11.9074C10.4375 10.8842 10.9659 9.96899 11.8511 9.4593ZM13.4109 20.3737L20.4638 16.281C20.5963 16.2042 20.6241 16.0858 20.6241 16C20.6241 15.9142 20.5963 15.7957 20.4638 15.7189L13.4109 11.6263C13.355 11.5939 13.3023 11.5817 13.2548 11.5817C13.1926 11.5817 13.1391 11.6024 13.0988 11.6257C13.0251 11.668 12.9375 11.7513 12.9375 11.9074V20.0926C12.9375 20.2487 13.0251 20.3319 13.0988 20.3743C13.1699 20.4152 13.2819 20.4486 13.4109 20.3737Z" fill="#0764E3"/>
</svg>
