<svg width="43" height="50" viewBox="0 0 43 50" fill="none" xmlns="http://www.w3.org/2000/svg">
<path d="M18.4127 0.80658C26.8115 -1.72535 35.9739 6.22373 34.7405 14.9383C34.0944 22.3574 26.2829 27.9512 19.0587 26.4203C14.5363 25.6548 10.8361 22.1808 9.309 17.9413C6.54854 10.9932 11.2472 2.39639 18.4127 0.80658ZM19 4.57503C15.0649 5.81155 11.952 9.81553 12.4219 14.055C12.4806 19.0011 17.1793 23.1229 22.0541 22.8285C26.9877 22.8285 31.099 18.0001 30.8641 13.1718C30.8641 7.40137 24.4622 2.80857 19 4.57503Z" fill="white"/>
<path d="M8.07144 24.7268C9.6656 24.1941 11.1417 26.0882 10.0199 27.3905C7.12675 31.0604 4.46982 35.4998 5.11929 40.3536C7.54006 43.4908 11.9683 44.2603 15.6289 44.9706C22.8322 45.6217 30.744 45.7993 37.0616 41.8334C39.4823 40.5312 38.4786 37.5715 38.0062 35.4998C37.3568 32.4218 35.4084 29.8765 33.4599 27.4497C31.8658 25.8515 34.6408 23.4246 36.1169 24.8452C40.0137 28.6335 42.4345 34.02 42.3754 39.5249C42.4935 42.4845 40.0727 44.497 37.7701 45.8585C32.4562 48.5813 26.3157 49.41 20.4114 49.2324C14.271 48.8181 7.36293 48.2262 2.69853 43.7276C0.454895 41.6558 0.868196 38.341 1.39958 35.6774C2.58044 31.5931 4.41078 26.9761 8.07144 24.7268Z" fill="white"/>
</svg>
