<svg width="72" height="71" viewBox="0 0 72 71" fill="none" xmlns="http://www.w3.org/2000/svg">
<path d="M48.342 54.8832L48.3418 54.8831L34.5705 47.5552L20.7259 54.7449L20.7258 54.745C20.1429 55.0475 19.4372 54.9943 18.9068 54.6048C18.3768 54.2156 18.1137 53.5595 18.2281 52.9114L18.2281 52.9114L20.9425 37.5494L9.82615 26.605C9.35738 26.1436 9.19158 25.456 9.39757 24.8321L9.39762 24.8319C9.60421 24.207 10.1479 23.7537 10.7984 23.6632C10.7985 23.6632 10.7986 23.6632 10.7988 23.6631L26.2473 21.4967L33.2209 7.54152C33.2209 7.54148 33.221 7.54145 33.221 7.54142C33.5142 6.9542 34.117 6.58327 34.7747 6.58591L34.7752 6.58591C35.433 6.58951 36.0311 6.96556 36.3192 7.55681C36.3192 7.55682 36.3192 7.55684 36.3192 7.55685L43.1531 21.5801L58.5796 23.9004C59.2304 23.9979 59.7684 24.4565 59.9688 25.0831C60.1695 25.7105 59.9952 26.3956 59.5223 26.8521L59.5223 26.8521L51.8688 34.238C51.8684 34.2384 51.8679 34.2388 51.8675 34.2392C51.1797 34.9137 50.0837 34.8811 49.4239 34.1967C48.7613 33.5104 48.7808 32.4165 49.4674 31.7543C49.4674 31.7543 49.4674 31.7543 49.4675 31.7542L54.6044 26.7968L41.7412 24.8631C41.1791 24.7786 40.6946 24.423 40.4451 23.9115L40.445 23.9114L34.7468 12.2183L28.9319 23.8538L28.9318 23.8539C28.6774 24.3627 28.1898 24.7134 27.6267 24.7922C27.6266 24.7922 27.6266 24.7922 27.6266 24.7922L14.745 26.5983L24.014 35.7239L48.342 54.8832ZM48.342 54.8832C48.9229 55.192 49.6283 55.1446 50.1621 54.7609C50.6959 54.3771 50.9655 53.7236 50.8578 53.0745L50.8578 53.0743L48.1491 36.7897L48.1491 36.7893C47.9916 35.8485 47.1022 35.2122 46.1608 35.3688L46.1599 35.3689C45.22 35.5278 44.5841 36.4164 44.7399 37.3569L44.74 37.3571L46.8748 50.1884M48.342 54.8832L46.8748 50.1884M46.8748 50.1884L35.3922 44.0776C34.8899 43.8102 34.2882 43.808 33.784 44.0701L22.2405 50.0657L24.5035 37.2559C24.5035 37.2559 24.5035 37.2559 24.5035 37.2559C24.6024 36.6965 24.4204 36.1235 24.0142 35.7241L46.8748 50.1884Z" fill="white" stroke="white" stroke-width="0.7"/>
</svg>
