<svg width="55" height="49" viewBox="0 0 55 49" fill="none" xmlns="http://www.w3.org/2000/svg">
<path d="M55 13.0257C55 10.6376 53.0717 8.6946 50.7017 8.6946H41.3261V4.33172C41.3261 1.94298 39.3978 0 37.0272 0H17.9728C15.6028 0 13.6745 1.94298 13.6745 4.33172V8.6946H4.29832C1.92827 8.6946 0 10.6376 0 13.0257V44.6683C0 47.057 1.92827 49 4.29832 49H50.7011C53.0711 49 54.9994 47.057 54.9994 44.6683V30.6893C54.9994 29.8619 54.3341 29.1915 53.5129 29.1915C52.6918 29.1915 52.0264 29.8619 52.0264 30.6893V44.6683C52.0264 45.4046 51.4318 46.0043 50.7011 46.0043H4.29832C3.56757 46.0043 2.97297 45.4046 2.97297 44.6683V26.5883H13.6739V29.6948C13.6739 30.5222 14.3392 31.1926 15.1604 31.1926C15.9815 31.1926 16.6469 30.5222 16.6469 29.6948V26.5883H38.3531V29.6948C38.3531 30.5222 39.0185 31.1926 39.8396 31.1926C40.6608 31.1926 41.3261 30.5222 41.3261 29.6948V26.5883H53.5135C54.3346 26.5883 55 25.9178 55 25.0904C55 24.9892 54.9893 24.8903 54.9703 24.7951C54.9893 24.6998 55 24.601 55 24.4997V13.0257ZM16.6469 4.33112C16.6469 3.59479 17.2415 2.99506 17.9722 2.99506H37.0266C37.7573 2.99506 38.3525 3.59479 38.3525 4.33112V8.694H16.6469V4.33112ZM39.8396 19.2825C39.0185 19.2825 38.3531 19.9529 38.3531 20.7803V23.5926H16.6469V20.7803C16.6469 19.9529 15.9815 19.2825 15.1604 19.2825C14.3392 19.2825 13.6739 19.9529 13.6739 20.7803V23.5926H2.97297V13.0257C2.97297 12.2894 3.56757 11.6903 4.29832 11.6903H50.7011C51.4318 11.6903 52.0264 12.2894 52.0264 13.0257V23.5932H41.3261V20.7809C41.3261 19.9529 40.6608 19.2825 39.8396 19.2825Z" fill="white"/>
</svg>
