<svg width="49" height="49" viewBox="0 0 49 49" fill="none" xmlns="http://www.w3.org/2000/svg">
<path d="M41.8242 7.17582C37.1966 2.54848 31.0442 0 24.5 0C17.9558 0 11.8034 2.54848 7.17582 7.17582C2.54848 11.8034 0 17.9558 0 24.5C0 31.0442 2.54848 37.1966 7.17582 41.8242C11.8034 46.4515 17.9558 49 24.5 49C28.9802 49 33.3637 47.779 37.177 45.4692C38.0811 44.9214 38.3702 43.7445 37.8224 42.8404C37.2746 41.9361 36.0976 41.6472 35.1936 42.1949C31.9786 44.1425 28.2808 45.1719 24.5 45.1719C13.1015 45.1719 3.82812 35.8985 3.82812 24.5C3.82812 13.1015 13.1015 3.82812 24.5 3.82812C35.8985 3.82812 45.1719 13.1015 45.1719 24.5C45.1719 28.5759 43.9598 32.5433 41.6667 35.9733C41.0791 36.852 41.3152 38.0407 42.194 38.6283C43.0729 39.216 44.2615 38.9797 44.849 38.1009C47.5646 34.0391 49 29.3359 49 24.5C49 17.9558 46.4515 11.8034 41.8242 7.17582Z" fill="white"/>
<path fill-rule="evenodd" clip-rule="evenodd" d="M18.148 14.4846C19.4984 13.7067 21.1095 13.7094 22.4577 14.4917L33.2575 20.7585C34.6051 21.5405 35.4097 22.9392 35.4097 24.5C35.4097 26.0608 34.6051 27.4596 33.2575 28.2415L22.4577 34.5084C21.7817 34.9007 21.0391 35.097 20.2967 35.097C19.5589 35.097 18.8212 34.9033 18.148 34.5156C16.7926 33.7351 15.9834 32.3337 15.9834 30.767V18.2332C15.9834 16.6664 16.7926 15.2651 18.148 14.4846ZM20.5364 31.1972L31.3362 24.9304C31.5391 24.8128 31.5816 24.6314 31.5816 24.5C31.5816 24.3686 31.5391 24.1873 31.3362 24.0696L20.5364 17.8028C20.4508 17.7531 20.3701 17.7346 20.2973 17.7346C20.2021 17.7346 20.1203 17.7663 20.0584 17.8019C19.9457 17.8667 19.8115 17.9942 19.8115 18.2332V30.7669C19.8115 31.0058 19.9457 31.1333 20.0584 31.1982C20.1674 31.2609 20.3389 31.312 20.5364 31.1972Z" fill="white"/>
</svg>
