<svg width="19" height="18" viewBox="0 0 19 18" fill="none" xmlns="http://www.w3.org/2000/svg">
<path d="M9.02617 0C6.63228 0 4.33644 0.948211 2.6437 2.63604C0.950968 4.32387 0 6.61305 0 9C0 11.3869 0.950968 13.6761 2.6437 15.364C4.33644 17.0518 6.63228 18 9.02617 18C11.4201 18 13.7159 17.0518 15.4086 15.364C17.1014 13.6761 18.0523 11.3869 18.0523 9C18.0523 6.61305 17.1014 4.32387 15.4086 2.63604C13.7159 0.948211 11.4201 0 9.02617 0ZM9.01609 3.2055C9.10203 3.2045 9.1873 3.22063 9.26689 3.25296C9.34648 3.2853 9.41879 3.33317 9.47956 3.39376C9.54033 3.45436 9.58834 3.52645 9.62077 3.60581C9.65319 3.68518 9.66938 3.7702 9.66837 3.85589V8.73382L13.3529 12.4026C13.4146 12.462 13.4638 12.5331 13.4976 12.6117C13.5314 12.6903 13.5491 12.7749 13.5497 12.8604C13.5503 12.9459 13.5339 13.0307 13.5012 13.1098C13.4686 13.1888 13.4204 13.2606 13.3596 13.3209C13.2988 13.3812 13.2265 13.4288 13.147 13.461C13.0675 13.4931 12.9824 13.509 12.8967 13.5079C12.8109 13.5068 12.7262 13.4887 12.6476 13.4546C12.5689 13.4204 12.4979 13.371 12.4387 13.3092L8.56907 9.45578C8.44923 9.33431 8.38265 9.17038 8.38396 9V3.85589C8.38195 3.68625 8.44726 3.52269 8.56567 3.40087C8.68408 3.27904 8.84598 3.20881 9.01609 3.2055Z" fill="#0764E3"/>
</svg>
