<svg width="23" height="23" viewBox="0 0 23 23" fill="none" xmlns="http://www.w3.org/2000/svg">
<path fill-rule="evenodd" clip-rule="evenodd" d="M0.462746 20.3084C-0.153024 20.9243 -0.152929 21.9225 0.462935 22.5382C1.0788 23.154 2.07721 23.1539 2.69297 22.5381L11.5002 13.73L20.3082 22.5373C20.9239 23.153 21.9224 23.153 22.5382 22.5373C23.1539 21.9216 23.1539 20.9232 22.5382 20.3074L13.7301 11.5L22.5375 2.6916C23.1532 2.07578 23.1532 1.07744 22.5372 0.461734C21.9215 -0.15399 20.923 -0.153896 20.3072 0.461923L11.4999 9.27012L2.6919 0.46268C2.07609 -0.153076 1.07766 -0.153076 0.461863 0.46268C-0.153954 1.07845 -0.153954 2.07679 0.461863 2.69256L9.27018 11.5001L0.462746 20.3084Z" fill="white"/>
</svg>
