<svg width="75" height="75" viewBox="0 0 75 75" fill="none" xmlns="http://www.w3.org/2000/svg">
<circle cx="37.5922" cy="37.1" r="37.1" fill="#F4F4F4"/>
<g clip-path="url(#clip0)">
<g clip-path="url(#clip1)">
<path d="M32.0645 46.3566C33.2733 47.8241 34.5023 49.6635 35.147 50.7788C35.9328 52.2268 36.2552 53.2052 36.8394 54.9467C37.1819 55.9055 37.5043 56.199 38.1893 56.199C38.9348 56.199 39.2773 55.7098 39.5392 54.9467C40.0832 53.303 40.5063 52.0507 41.1712 50.8571C42.4808 48.5677 44.1329 46.5327 45.7447 44.5759C46.1879 44.028 49.0086 40.7994 50.2779 38.2361C50.2779 38.2361 51.8293 35.4379 51.8293 31.5244C51.8293 27.8653 50.298 25.3215 50.298 25.3215L45.8656 26.476L43.1658 33.3638L42.5009 34.303L42.3599 34.4791L42.1786 34.6943L41.8763 35.0466L41.4331 35.477L39.0355 37.3751L33.0517 40.7407L32.0645 46.3566Z" fill="#34A853"/>
<path d="M25.8799 37.7665C27.3507 41.0147 30.1512 43.852 32.0652 46.3566L42.1994 34.6944C42.1994 34.6944 40.769 36.5142 38.1901 36.5142C35.309 36.5142 32.9718 34.2835 32.9718 31.4658C32.9718 29.5286 34.1605 28.198 34.1605 28.198L27.2902 29.9786L25.8799 37.7665Z" fill="#FBBC04"/>
<path d="M42.3199 18.8057C45.6846 19.8623 48.5657 22.0734 50.2984 25.3412L42.1991 34.714C42.1991 34.714 43.3878 33.3639 43.3878 31.4462C43.3878 28.5698 40.8895 26.3978 38.1897 26.3978C35.6309 26.3978 34.1602 28.198 34.1602 28.198V22.2887L42.3199 18.8057Z" fill="#4285F4"/>
<path d="M27.7334 22.9343C29.7482 20.6058 33.274 18.199 38.1497 18.199C40.507 18.199 42.3001 18.8056 42.3001 18.8056L34.1605 28.1979H28.3983L27.7334 22.9343Z" fill="#1A73E8"/>
<path d="M25.8796 37.7664C25.8796 37.7664 24.5498 35.2031 24.5498 31.5048C24.5498 28.0023 25.9601 24.9497 27.7533 22.9539L34.1804 28.2175L25.8796 37.7664Z" fill="#EA4335"/>
</g>
</g>
<defs>
<clipPath id="clip0">
<rect width="39" height="38" fill="white" transform="translate(18.6934 18.2)"/>
</clipPath>
<clipPath id="clip1">
<rect width="27.3" height="38" fill="white" transform="translate(24.543 18.2)"/>
</clipPath>
</defs>
</svg>
