<svg width="12" height="9" viewBox="0 0 12 9" fill="none" xmlns="http://www.w3.org/2000/svg">
<path d="M5.84206 8.76956C4.51085 8.76956 3.17964 8.76956 1.84843 8.76956C1.44471 8.7779 1.04988 8.65046 0.727219 8.40767C0.404557 8.16488 0.172746 7.82079 0.0689364 7.43056C0.0274632 7.27819 0.00586329 7.1211 0.00467365 6.96319C0 5.69313 0 4.42073 0 3.14949C0 2.82 0.205641 2.69732 0.501249 2.85155C2.1604 3.71384 3.81837 4.57807 5.47518 5.44426C5.58647 5.51005 5.71337 5.54475 5.84265 5.54475C5.97192 5.54475 6.09883 5.51005 6.21011 5.44426C7.85913 4.58275 9.5101 3.72357 11.163 2.86674C11.211 2.84001 11.2625 2.82034 11.3161 2.80832C11.5428 2.76625 11.6818 2.87959 11.6818 3.1086C11.6818 4.20924 11.6818 5.31028 11.6818 6.4117C11.6952 6.69714 11.685 6.98321 11.6514 7.26698C11.5843 7.69017 11.3668 8.07496 11.0388 8.35074C10.7109 8.62652 10.2945 8.77481 9.86608 8.76839C8.78179 8.77774 7.69867 8.76839 6.61439 8.76839H5.84206V8.76956Z" fill="#0764E3"/>
<path d="M5.82591 0.000649149C7.15323 0.000649149 8.47938 0.000649149 9.8067 0.000649149C10.586 0.000649149 11.1621 0.351173 11.5149 1.05222C11.6318 1.27772 11.5722 1.42494 11.3455 1.54295C9.58509 2.45743 7.82507 3.37347 6.06544 4.29106C5.99889 4.32907 5.92358 4.34907 5.84694 4.34907C5.77031 4.34907 5.695 4.32907 5.62845 4.29106L0.301657 1.51842C0.108869 1.41793 0.0679746 1.29291 0.154437 1.09662C0.492108 0.37571 1.06697 0.00999642 1.85681 0.00415436C3.17946 -0.00519295 4.5021 0.00415436 5.82942 0.00415436L5.82591 0.000649149Z" fill="#0764E3"/>
</svg>
