<svg width="23" height="27" viewBox="0 0 23 27" fill="none" xmlns="http://www.w3.org/2000/svg">
<path d="M19.465 26.0226H2.80801C1.25803 26.0226 0 24.7665 0 23.2189V2.80366C0 1.25608 1.25803 0 2.80801 0H14.1674C14.2524 0 14.332 0.0317995 14.3904 0.0953985L19.6932 5.39002C19.7516 5.44831 19.7888 5.53311 19.7888 5.61261V11.3736C19.7888 11.5485 19.6454 11.6916 19.4703 11.6916H5.05866C4.18282 11.6916 3.47153 12.4018 3.47153 13.2763V18.1257C3.47153 19.0002 4.18282 19.7104 5.05866 19.7104H19.4703C19.6454 19.7104 19.7888 19.8535 19.7888 20.0284V25.7046C19.7835 25.8795 19.6454 26.0226 19.465 26.0226ZM2.80801 0.63069C1.60837 0.63069 0.636978 1.60587 0.636978 2.79836V23.2136C0.636978 24.4114 1.61368 25.3813 2.80801 25.3813H19.1518V20.3411H5.05866C3.83248 20.3411 2.83455 19.3447 2.83455 18.1204V13.271C2.83455 12.0467 3.83248 11.0503 5.05866 11.0503H19.1518V5.73981L14.0347 0.63069H2.80801Z" fill="#0764E3"/>
<path d="M20.6115 20.3464H5.05859C3.8324 20.3464 2.83447 19.35 2.83447 18.1258V13.2763C2.83447 12.052 3.8324 11.0557 5.05859 11.0557H20.6115C21.8376 11.0557 22.8356 12.052 22.8356 13.2763V18.1258C22.8356 19.35 21.8376 20.3464 20.6115 20.3464ZM5.05859 11.6917C4.18274 11.6917 3.47145 12.4018 3.47145 13.2763V18.1258C3.47145 19.0002 4.18274 19.7104 5.05859 19.7104H20.6115C21.4873 19.7104 22.1986 19.0002 22.1986 18.1258V13.2763C22.1986 12.4018 21.4873 11.6917 20.6115 11.6917H5.05859Z" fill="#0764E3"/>
<path d="M6.94287 17.9457V13.4619H8.63617C8.93343 13.4619 9.16168 13.4778 9.32092 13.5043C9.53856 13.5414 9.72434 13.6103 9.87297 13.711C10.0216 13.8117 10.1437 13.9601 10.2339 14.1456C10.3242 14.3311 10.3719 14.5378 10.3719 14.7551C10.3719 15.1367 10.2498 15.46 10.0057 15.725C9.7615 15.99 9.32092 16.1225 8.68925 16.1225H7.53738V17.9457H6.94287ZM7.53738 15.5925H8.69987C9.08205 15.5925 9.35808 15.5183 9.51732 15.3805C9.67657 15.2374 9.75619 15.036 9.75619 14.7763C9.75619 14.5908 9.70842 14.4265 9.61287 14.294C9.51732 14.1615 9.38993 14.0714 9.23599 14.029C9.13514 14.0025 8.94935 13.9866 8.68394 13.9866H7.53208V15.5925H7.53738Z" fill="#0764E3"/>
<path d="M7.5641 17.9718H6.9165V13.4351H8.63634C8.9336 13.4351 9.16185 13.451 9.3264 13.4775C9.54935 13.5146 9.74044 13.5888 9.88907 13.6895C10.043 13.7955 10.1651 13.9439 10.2606 14.1346C10.3509 14.3201 10.3986 14.5321 10.3986 14.76C10.3986 15.1469 10.2713 15.4808 10.0271 15.7458C9.7776 16.0161 9.3264 16.1486 8.68943 16.1486H7.5641V17.9718ZM6.96959 17.9188H7.51102V16.0956H8.68943C9.31048 16.0956 9.75106 15.9631 9.98992 15.7087C10.2288 15.449 10.3456 15.131 10.3456 14.76C10.3456 14.5427 10.3031 14.3413 10.2129 14.1611C10.1226 13.9809 10.0058 13.8379 9.86253 13.7372C9.71921 13.6365 9.53342 13.5676 9.32109 13.5305C9.16185 13.504 8.9336 13.4881 8.64165 13.4881H6.97489V17.9188H6.96959ZM8.70004 15.6186H7.51102V13.9597H8.68943C8.96545 13.9597 9.14593 13.9757 9.25209 14.0021C9.41133 14.0445 9.54404 14.1399 9.63958 14.2777C9.73513 14.4155 9.78821 14.5798 9.78821 14.7759C9.78821 15.0409 9.70328 15.2529 9.53873 15.4013C9.37418 15.5444 9.09284 15.6186 8.70004 15.6186ZM7.5641 15.5656H8.70004C9.07692 15.5656 9.34764 15.4967 9.50157 15.3589C9.65551 15.2211 9.73513 15.025 9.73513 14.7759C9.73513 14.5957 9.68736 14.4367 9.59712 14.3095C9.50688 14.1823 9.38479 14.0975 9.23616 14.0551C9.14062 14.0286 8.95483 14.018 8.68943 14.018H7.5641V15.5656Z" fill="#0764E3"/>
<path d="M11.1313 17.9456V13.4619H12.6813C13.0317 13.4619 13.2971 13.4831 13.4829 13.5255C13.7376 13.5838 13.9606 13.6898 14.1411 13.8488C14.3746 14.0502 14.5551 14.3046 14.6719 14.6173C14.7887 14.93 14.847 15.2798 14.847 15.6826C14.847 16.0218 14.8046 16.3239 14.725 16.5889C14.6453 16.8539 14.5445 17.0712 14.4171 17.2408C14.295 17.4157 14.157 17.5482 14.0084 17.6488C13.8597 17.7495 13.6793 17.8237 13.4722 17.8767C13.2652 17.9297 13.021 17.9509 12.7503 17.9509L11.1313 17.9456ZM11.7259 17.4157H12.6866C12.9839 17.4157 13.2121 17.3892 13.382 17.3309C13.5519 17.2779 13.6846 17.1984 13.7854 17.0977C13.9234 16.9546 14.0349 16.7691 14.1145 16.5306C14.1941 16.2921 14.2313 16.0059 14.2313 15.6667C14.2313 15.195 14.1517 14.8399 14.0031 14.5855C13.8491 14.3311 13.6633 14.1668 13.4404 14.082C13.2811 14.0184 13.0264 13.9866 12.6707 13.9866H11.7259V17.4157Z" fill="#0764E3"/>
<path d="M12.75 17.9718H11.1045V13.4351H12.681C13.0313 13.4351 13.3021 13.4563 13.4878 13.4987C13.7533 13.5623 13.9709 13.6683 14.1567 13.8273C14.3955 14.0286 14.576 14.2883 14.6981 14.6063C14.8149 14.919 14.8786 15.2847 14.8786 15.6822C14.8786 16.0267 14.8361 16.3341 14.7565 16.5938C14.6769 16.8588 14.5707 17.0814 14.4433 17.2563C14.3159 17.4312 14.1779 17.569 14.0293 17.6697C13.8807 17.7704 13.7002 17.8446 13.4825 17.8976C13.2649 17.9453 13.0313 17.9718 12.75 17.9718ZM11.1576 17.9188H12.75C13.026 17.9188 13.2596 17.8923 13.4666 17.8446C13.6736 17.7916 13.8541 17.7174 13.9921 17.622C14.1354 17.5266 14.2735 17.3888 14.3955 17.2192C14.5176 17.0496 14.6185 16.8323 14.6981 16.5726C14.7777 16.3129 14.8149 16.0108 14.8149 15.6769C14.8149 15.2847 14.7565 14.9296 14.6397 14.6222C14.5229 14.3148 14.3478 14.0657 14.1142 13.8697C13.9337 13.716 13.7214 13.6153 13.4666 13.5517C13.2861 13.5093 13.0207 13.4881 12.6757 13.4881H11.1523V17.9188H11.1576ZM12.6863 17.4418H11.699V13.9597H12.6651C13.0154 13.9597 13.2808 13.9915 13.4454 14.0551C13.6683 14.1399 13.8647 14.3148 14.024 14.5745C14.1779 14.8342 14.2575 15.1999 14.2575 15.6716C14.2575 16.0108 14.2151 16.3023 14.1408 16.5461C14.0611 16.7846 13.9497 16.9754 13.8063 17.1238C13.7002 17.2298 13.5622 17.3093 13.3923 17.3623C13.2171 17.4153 12.9783 17.4418 12.6863 17.4418ZM11.7521 17.3888H12.6863C12.9783 17.3888 13.2065 17.3623 13.3711 17.3093C13.5356 17.2563 13.6683 17.1821 13.7639 17.0814C13.9019 16.9436 14.0134 16.7528 14.0877 16.5249C14.1673 16.2917 14.2044 16.0002 14.2044 15.6663C14.2044 15.2052 14.1301 14.8501 13.9762 14.601C13.8276 14.3519 13.6418 14.1876 13.4242 14.1081C13.2649 14.0498 13.0101 14.018 12.6651 14.018H11.7468V17.3888H11.7521Z" fill="#0764E3"/>
<path d="M15.6904 17.9457V13.4619H18.7214V13.9919H16.2849V15.3805H18.3976V15.9105H16.2902V17.9457H15.6904Z" fill="#0764E3"/>
<path d="M16.3121 17.9718H15.6646V13.4351H18.7486V14.018H16.3121V15.3536H18.4195V15.9366H16.3121V17.9718ZM15.7176 17.9188H16.2591V15.8836H18.3664V15.4066H16.2591V13.965H18.6955V13.4881H15.7176V17.9188Z" fill="#0764E3"/>
<path d="M19.0139 5.92546H14.1622C13.9871 5.92546 13.8438 5.78236 13.8438 5.60746V0.620241C13.8438 0.445344 13.9871 0.302246 14.1622 0.302246C14.3374 0.302246 14.4807 0.445344 14.4807 0.620241V5.29477H19.0139C19.1891 5.29477 19.3324 5.43786 19.3324 5.61276C19.3324 5.78766 19.1944 5.92546 19.0139 5.92546Z" fill="#0764E3"/>
</svg>
