<svg width="11" height="11" viewBox="0 0 11 11" fill="none" xmlns="http://www.w3.org/2000/svg">
<path d="M10.4667 8.13251L8.8697 7.01657C8.66086 6.87091 8.41675 6.7941 8.16361 6.7941C7.7611 6.7941 7.38326 6.99153 7.15312 7.32186L6.78238 7.85322C6.16104 7.43646 5.46771 6.85454 4.80677 6.19364C4.14594 5.53274 3.5642 4.83935 3.1476 4.21793L3.67867 3.84716C3.94938 3.65864 4.13017 3.37623 4.18759 3.05216C4.24489 2.72833 4.17266 2.40113 3.98393 2.13028L2.86835 0.53305C2.63507 0.199352 2.25868 0 1.86134 0C1.72364 0 1.58859 0.0243171 1.46003 0.0717475C1.31403 0.125679 1.17801 0.191888 1.04464 0.275674L0.824126 0.430967C0.768997 0.473822 0.71772 0.520771 0.66861 0.569887C0.399585 0.83882 0.20868 1.17926 0.10095 1.58182C-0.358738 3.3052 0.780071 5.91122 2.93467 8.06606C4.74406 9.87564 6.9178 10.9998 8.60741 11H8.60753C8.8969 11 9.16965 10.9663 9.41834 10.8998C9.82085 10.7922 10.1613 10.6013 10.4304 10.3321C10.4793 10.2832 10.526 10.232 10.576 10.1672L10.7314 9.94546C10.8074 9.82411 10.8735 9.68808 10.9281 9.54097C11.116 9.03296 10.9263 8.45369 10.4667 8.13251Z" fill="white"/>
</svg>
