<svg width="18" height="18" viewBox="0 0 18 18" fill="none" xmlns="http://www.w3.org/2000/svg">
<path fill-rule="evenodd" clip-rule="evenodd" d="M8.99918 0C13.9679 0 18 4.03212 18 9.00082C18 13.9678 13.9679 18 8.99918 18C4.03216 18 0 13.9678 0 9.00082C0 4.03212 4.03216 0 8.99918 0ZM8.99918 1.46167C13.1601 1.46167 16.5384 4.83989 16.5384 9.00082C16.5384 13.1601 13.1601 16.5383 8.99918 16.5383C4.83993 16.5383 1.46172 13.1601 1.46172 9.00082C1.46172 4.83989 4.83993 1.46167 8.99918 1.46167Z" fill="white"/>
<path d="M11.5183 10.0615C11.7236 10.136 12.8246 10.675 13.0485 10.7866C13.2724 10.8982 13.4217 10.9539 13.4776 11.0469C13.5337 11.1399 13.5337 11.5861 13.3471 12.1067C13.1603 12.6272 12.2658 13.1024 11.8355 13.1665C11.4496 13.2238 10.9615 13.2478 10.425 13.0781C10.0997 12.9754 9.68266 12.8384 9.14837 12.6086C6.90201 11.6433 5.4348 9.39221 5.32286 9.24346L5.32085 9.24079C5.20169 9.08247 4.40849 8.02863 4.40849 6.93798C4.40849 5.84099 4.98694 5.30189 5.19216 5.07876C5.39748 4.85552 5.64012 4.79982 5.78937 4.79982C5.93873 4.79982 6.08809 4.80114 6.21858 4.80762C6.35612 4.81443 6.54059 4.75576 6.72251 5.19016C6.90907 5.63654 7.35693 6.73352 7.41279 6.84503C7.46887 6.95654 7.50629 7.08673 7.43156 7.23549C7.35693 7.38413 7.11418 7.69823 6.87176 7.99783C6.77241 8.12043 6.64303 8.22942 6.77351 8.45266C6.90422 8.67568 7.35362 9.40551 8.01928 9.99646C8.87471 10.7557 9.59622 10.9912 9.82021 11.1027C10.0442 11.2143 10.1747 11.1956 10.3054 11.0469C10.4361 10.8982 10.8652 10.3961 11.0145 10.1731C11.1637 9.9501 11.3131 9.98712 11.5183 10.0615Z" fill="white"/>
</svg>
