<svg width="11" height="16" viewBox="0 0 11 16" fill="none" xmlns="http://www.w3.org/2000/svg">
<path d="M4.56 10.58C4.56 10.0467 4.64667 9.58 4.82 9.18C5.00667 8.76667 5.22667 8.42 5.48 8.14C5.74667 7.86 6.09333 7.52667 6.52 7.14C7.05333 6.67333 7.44667 6.27333 7.7 5.94C7.95333 5.59333 8.08 5.18 8.08 4.7C8.08 4.04667 7.82667 3.52667 7.32 3.14C6.81333 2.74 6.11333 2.54 5.22 2.54C3.66 2.54 2.46667 3.06667 1.64 4.12L0.18 3.08C0.74 2.36 1.45333 1.80667 2.32 1.42C3.2 1.03333 4.21333 0.84 5.36 0.84C6.81333 0.84 7.96667 1.16 8.82 1.8C9.67333 2.42667 10.1 3.29333 10.1 4.4C10.1 4.94667 10.0067 5.43333 9.82 5.86C9.64667 6.27333 9.43333 6.62 9.18 6.9C8.92667 7.18 8.58667 7.51333 8.16 7.9C7.61333 8.39333 7.20667 8.82667 6.94 9.2C6.68667 9.57333 6.56 10.0333 6.56 10.58H4.56ZM5.58 15.12C5.20667 15.12 4.89333 15 4.64 14.76C4.4 14.5067 4.28 14.2 4.28 13.84C4.28 13.48 4.4 13.18 4.64 12.94C4.89333 12.6867 5.20667 12.56 5.58 12.56C5.95333 12.56 6.26 12.6867 6.5 12.94C6.74 13.18 6.86 13.48 6.86 13.84C6.86 14.2 6.73333 14.5067 6.48 14.76C6.24 15 5.94 15.12 5.58 15.12Z" fill="#595959"/>
</svg>
