<svg width="14" height="14" viewBox="0 0 14 14" fill="none" xmlns="http://www.w3.org/2000/svg">
<path fill-rule="evenodd" clip-rule="evenodd" d="M6.90562 0.0625C10.7184 0.0625 13.8125 3.15659 13.8125 6.96938C13.8125 10.7809 10.7184 13.875 6.90562 13.875C3.09412 13.875 0 10.7809 0 6.96938C0 3.15659 3.09412 0.0625 6.90562 0.0625ZM6.90562 1.18413C10.0986 1.18413 12.6909 3.77644 12.6909 6.96938C12.6909 10.161 10.0986 12.7534 6.90562 12.7534C3.71397 12.7534 1.12166 10.161 1.12166 6.96938C1.12166 3.77644 3.71397 1.18413 6.90562 1.18413Z" fill="#595959"/>
<path d="M9.83682 4.02015L3.3852 6.53427C3.17623 6.61572 3.18889 6.91559 3.404 6.9791L5.04342 7.46321L5.65526 9.40463C5.71917 9.60742 5.97615 9.66889 6.12491 9.517L6.97254 8.65153L8.63565 9.8723C8.83918 10.0217 9.12904 9.9107 9.18072 9.66358L10.2822 4.39733C10.3362 4.13938 10.0824 3.92446 9.83682 4.02015ZM9.02795 5.18886L6.03122 7.83888C6.00134 7.8653 5.98233 7.90186 5.97789 7.94149L5.86251 8.96713C5.85874 9.00058 5.81194 9.005 5.80194 8.97287L5.32725 7.44327C5.30551 7.37324 5.33385 7.29737 5.39616 7.25873L8.935 5.06391C9.01637 5.0134 9.0997 5.12543 9.02795 5.18886Z" fill="#595959"/>
</svg>
