<svg width="18" height="18" viewBox="0 0 18 18" fill="none" xmlns="http://www.w3.org/2000/svg">
<path fill-rule="evenodd" clip-rule="evenodd" d="M8.99918 0C13.9679 0 18 4.03212 18 9.00082C18 13.9678 13.9679 18 8.99918 18C4.03216 18 0 13.9678 0 9.00082C0 4.03212 4.03216 0 8.99918 0ZM8.99918 1.46167C13.1601 1.46167 16.5384 4.83989 16.5384 9.00082C16.5384 13.1601 13.1601 16.5383 8.99918 16.5383C4.83993 16.5383 1.46172 13.1601 1.46172 9.00082C1.46172 4.83989 4.83993 1.46167 8.99918 1.46167Z" fill="white"/>
<path d="M12.8186 5.15719L4.4111 8.43351C4.13878 8.53965 4.15527 8.93043 4.4356 9.01319L6.57204 9.64408L7.36936 12.1741C7.45265 12.4383 7.78754 12.5184 7.9814 12.3205L9.086 11.1926L11.2533 12.7835C11.5185 12.9782 11.8963 12.8336 11.9636 12.5115L13.3991 5.64872C13.4694 5.31256 13.1386 5.03249 12.8186 5.15719ZM11.7646 6.68021L7.8593 10.1336C7.82037 10.1681 7.7956 10.2157 7.7898 10.2673L7.63945 11.6039C7.63454 11.6475 7.57354 11.6533 7.56052 11.6114L6.94191 9.61809C6.91358 9.52683 6.95052 9.42795 7.03171 9.3776L11.6434 6.51739C11.7495 6.45156 11.858 6.59756 11.7646 6.68021Z" fill="white"/>
</svg>
