<svg width="77" height="75" viewBox="0 0 77 75" fill="none" xmlns="http://www.w3.org/2000/svg">
<circle cx="37.4711" cy="37.1" r="37.1" fill="#F97D41"/>
<g clip-path="url(#clip0)">
<path fill-rule="evenodd" clip-rule="evenodd" d="M75.3449 15.2C71.9326 15.2 68.754 16.1403 66.0729 17.7569C64.4855 18.7145 63.0726 19.9085 61.8923 21.2898C60.4535 20.2722 58.7943 19.5209 56.996 19.1065C55.9652 18.8692 54.8896 18.7405 53.7821 18.7405C53.3275 18.7405 52.878 18.7615 52.4346 18.8032C54.0563 18.9549 55.5925 19.3799 56.996 20.0245C58.4378 20.6868 59.7371 21.5832 60.8396 22.6628C61.4266 23.2378 61.9573 23.8644 62.424 24.5351C62.7522 23.8861 63.1225 23.2605 63.5339 22.6625C64.8083 20.8095 66.4641 19.2145 68.3992 17.9816C70.8044 16.4483 73.6372 15.4719 76.6924 15.249C76.2476 15.2166 75.7981 15.2 75.3449 15.2Z" fill="white"/>
<path fill-rule="evenodd" clip-rule="evenodd" d="M53.1064 47.1999C51.0847 47.1999 49.7368 45.2 49.7368 43.2V29.8669H52.4325V43.8666C52.4325 44.5463 53.1064 45.2 53.7803 45.2H55.1281V29.8669H57.8238V47.1999H53.1064ZM44.3455 41.2C44.3048 40.4804 43.7329 39.8667 42.9977 39.8667H41.6499V47.1999H38.9542V29.8669H42.9977C45.6934 29.8669 47.0412 31.8669 47.0412 33.8669V35.2002C47.0412 36.4455 46.5752 37.7801 45.6934 38.5334C46.5752 39.2867 47.0412 40.6211 47.0412 41.8667V47.1999H44.3455V41.2ZM42.9977 32.5336H41.6499V37.2001H42.9977C43.6716 37.2001 44.3455 36.5335 44.3455 34.5335C44.3455 33.2002 43.6716 32.5336 42.9977 32.5336ZM34.2368 44.5333H36.9325V47.1999H34.2368V44.5333ZM26.1499 29.8669H28.8455V44.5333H32.2151V47.1999H26.1499V29.8669ZM18.0629 47.1999L14.6934 29.8669H17.389L19.4108 40.5334L21.4325 29.8669H24.1281L20.7586 47.1999H18.0629Z" fill="white"/>
</g>
<defs>
<clipPath id="clip0">
<rect width="62" height="32" fill="white" transform="translate(14.6934 15.2)"/>
</clipPath>
</defs>
</svg>
