<svg width="14" height="14" viewBox="0 0 14 14" fill="none" xmlns="http://www.w3.org/2000/svg">
<g clip-path="url(#clip0)">
<path d="M10.0755 8.29656L10.0704 8.33973C8.80479 7.70896 8.67242 7.62493 8.50897 7.8701C8.39559 8.03988 8.06525 8.4249 7.96568 8.53886C7.86496 8.65108 7.76482 8.65972 7.59389 8.58202C7.42124 8.49569 6.86701 8.3144 6.21092 7.72737C5.69985 7.26983 5.35684 6.7087 5.25555 6.53604C5.08693 6.24483 5.43972 6.20339 5.76086 5.59564C5.81841 5.47478 5.78906 5.37982 5.74647 5.29407C5.70331 5.20774 5.35972 4.36173 5.21584 4.02447C5.07772 3.68837 4.93556 3.73095 4.82909 3.73095C4.49759 3.70218 4.2553 3.70678 4.04178 3.92893C3.11289 4.94991 3.34713 6.00311 4.14192 7.12307C5.70388 9.16733 6.53609 9.54372 8.05776 10.0663C8.46869 10.1969 8.84335 10.1785 9.13974 10.1359C9.47009 10.0836 10.1567 9.72098 10.3 9.31523C10.4468 8.90949 10.4468 8.57281 10.4036 8.49512C10.361 8.41742 10.2482 8.37426 10.0755 8.29656Z" fill="#595959"/>
<path d="M11.8097 2.0465C7.38451 -2.23135 0.0610052 0.871285 0.0581276 6.9062C0.0581276 8.11249 0.374089 9.28885 0.976083 10.3277L0 13.874L3.64592 12.9233C8.19542 15.3807 13.8102 12.1175 13.8125 6.90965C13.8125 5.0818 13.0989 3.36156 11.8011 2.06894L11.8097 2.0465ZM12.6626 6.89066C12.6592 11.2836 7.83687 14.0271 4.02289 11.7849L3.8157 11.6617L1.6575 12.2229L2.2359 10.1251L2.09835 9.90926C-0.275099 6.13097 2.45172 1.193 6.94769 1.193C8.47512 1.193 9.90874 1.78867 10.9884 2.86777C12.0675 3.93766 12.6626 5.37128 12.6626 6.89066Z" fill="#595959"/>
</g>
<defs>
<clipPath id="clip0">
<rect width="13.8125" height="13.8125" fill="white" transform="translate(0 0.0625)"/>
</clipPath>
</defs>
</svg>
