<svg width="76" height="75" viewBox="0 0 76 75" fill="none" xmlns="http://www.w3.org/2000/svg">
<circle cx="37.9613" cy="37.1" r="37.1" fill="#F4F4F4"/>
<g clip-path="url(#clip0)">
<path fill-rule="evenodd" clip-rule="evenodd" d="M38.16 18.2C29.5541 18.2038 22.5781 25.0048 22.5781 33.3913C22.5781 37.4133 24.2192 41.2765 27.1347 44.1237C29.9578 46.8745 36.6014 50.8539 36.9949 55.0334C37.0538 55.6579 37.5198 56.1693 38.1607 56.1693C38.8013 56.1693 39.2689 55.6579 39.3265 55.0334C39.72 50.8532 46.3581 46.8809 49.1795 44.1319C52.1003 41.286 53.7446 37.419 53.7446 33.3913C53.7446 25.0048 46.7665 18.202 38.16 18.2Z" fill="#EF4738"/>
<path d="M38.1786 38.674C41.1783 38.674 43.6101 36.3046 43.6101 33.3818C43.6101 30.459 41.1783 28.0896 38.1786 28.0896C35.1788 28.0896 32.7471 30.459 32.7471 33.3818C32.7471 36.3046 35.1788 38.674 38.1786 38.674Z" fill="#BF3326"/>
</g>
<defs>
<clipPath id="clip0">
<rect width="39" height="38" fill="white" transform="translate(18.6934 18.2)"/>
</clipPath>
</defs>
</svg>
