<svg width="397" height="519" viewBox="0 0 397 519" fill="none" xmlns="http://www.w3.org/2000/svg">
<g style="mix-blend-mode:luminosity" opacity="0.2">
<path d="M394.574 0.964355L384.999 7.40808L394.574 13.9578L384.999 20.2146L394.574 26.6003L384.999 32.8741L391.371 36.9084L394.574 38.937" stroke="#43ADE6" stroke-width="2"/>
<path d="M394.574 148.368L384.999 154.812L394.574 161.362L384.999 167.619L394.574 174.004L384.999 180.278L391.371 184.312L394.574 186.341" stroke="#43ADE6" stroke-width="2"/>
<path d="M394.574 37.8154L384.999 44.2592L394.574 50.8088L384.999 57.0656L394.574 63.4514L384.999 69.7252L391.371 73.7595L394.574 75.788" stroke="#43ADE6" stroke-width="2"/>
<path d="M394.574 185.219L384.999 191.663L394.574 198.213L384.999 204.469L394.574 210.855L384.999 217.129L391.371 221.163L394.574 223.192" stroke="#43ADE6" stroke-width="2"/>
<path d="M394.574 74.6663L384.999 81.11L394.574 87.6597L384.999 93.9165L394.574 100.302L384.999 106.576L391.371 110.61L394.574 112.639" stroke="#43ADE6" stroke-width="2"/>
<path d="M394.574 222.07L384.999 228.514L394.574 235.064L384.999 241.321L394.574 247.706L384.999 253.98L391.371 258.014L394.574 260.043" stroke="#43ADE6" stroke-width="2"/>
<path d="M394.574 111.517L384.999 117.961L394.574 124.511L384.999 130.768L394.574 137.153L384.999 143.427L391.371 147.461L394.574 149.49" stroke="#43ADE6" stroke-width="2"/>
<path d="M377.927 0.964355L368.352 7.40808L377.927 13.9578L368.352 20.2146L377.927 26.6003L368.352 32.8741L374.723 36.9084L377.927 38.937" stroke="#43ADE6" stroke-width="2"/>
<path d="M377.927 148.368L368.352 154.812L377.927 161.362L368.352 167.619L377.927 174.004L368.352 180.278L374.723 184.312L377.927 186.341" stroke="#43ADE6" stroke-width="2"/>
<path d="M377.927 37.8154L368.352 44.2592L377.927 50.8088L368.352 57.0656L377.927 63.4514L368.352 69.7252L374.723 73.7595L377.927 75.788" stroke="#43ADE6" stroke-width="2"/>
<path d="M377.927 185.219L368.352 191.663L377.927 198.213L368.352 204.469L377.927 210.855L368.352 217.129L374.723 221.163L377.927 223.192" stroke="#43ADE6" stroke-width="2"/>
<path d="M377.927 74.6663L368.352 81.11L377.927 87.6597L368.352 93.9165L377.927 100.302L368.352 106.576L374.723 110.61L377.927 112.639" stroke="#43ADE6" stroke-width="2"/>
<path d="M377.927 222.07L368.352 228.514L377.927 235.064L368.352 241.321L377.927 247.706L368.352 253.98L374.723 258.014L377.927 260.043" stroke="#43ADE6" stroke-width="2"/>
<path d="M377.927 111.517L368.352 117.961L377.927 124.511L368.352 130.768L377.927 137.153L368.352 143.427L374.723 147.461L377.927 149.49" stroke="#43ADE6" stroke-width="2"/>
<path d="M361.279 0.964355L351.704 7.40808L361.279 13.9578L351.704 20.2146L361.279 26.6003L351.704 32.8741L358.076 36.9084L361.279 38.937" stroke="#43ADE6" stroke-width="2"/>
<path d="M361.279 148.368L351.704 154.812L361.279 161.362L351.704 167.619L361.279 174.004L351.704 180.278L358.076 184.312L361.279 186.341" stroke="#43ADE6" stroke-width="2"/>
<path d="M361.279 37.8154L351.704 44.2592L361.279 50.8088L351.704 57.0656L361.279 63.4514L351.704 69.7252L358.076 73.7595L361.279 75.788" stroke="#43ADE6" stroke-width="2"/>
<path d="M361.279 185.219L351.704 191.663L361.279 198.213L351.704 204.469L361.279 210.855L351.704 217.129L358.076 221.163L361.279 223.192" stroke="#43ADE6" stroke-width="2"/>
<path d="M361.279 74.6663L351.704 81.11L361.279 87.6597L351.704 93.9165L361.279 100.302L351.704 106.576L358.076 110.61L361.279 112.639" stroke="#43ADE6" stroke-width="2"/>
<path d="M361.279 222.07L351.704 228.514L361.279 235.064L351.704 241.321L361.279 247.706L351.704 253.98L358.076 258.014L361.279 260.043" stroke="#43ADE6" stroke-width="2"/>
<path d="M361.279 111.518L351.704 117.961L361.279 124.511L351.704 130.768L361.279 137.154L351.704 143.427L358.076 147.462L361.279 149.49" stroke="#43ADE6" stroke-width="2"/>
<path d="M344.632 0.964355L335.057 7.40808L344.632 13.9578L335.057 20.2146L344.632 26.6003L335.057 32.8741L341.428 36.9084L344.632 38.937" stroke="#43ADE6" stroke-width="2"/>
<path d="M344.632 148.368L335.057 154.812L344.632 161.362L335.057 167.619L344.632 174.004L335.057 180.278L341.428 184.312L344.632 186.341" stroke="#43ADE6" stroke-width="2"/>
<path d="M344.632 37.8154L335.057 44.2592L344.632 50.8088L335.057 57.0656L344.632 63.4514L335.057 69.7252L341.428 73.7595L344.632 75.788" stroke="#43ADE6" stroke-width="2"/>
<path d="M344.632 185.219L335.057 191.663L344.632 198.213L335.057 204.469L344.632 210.855L335.057 217.129L341.428 221.163L344.632 223.192" stroke="#43ADE6" stroke-width="2"/>
<path d="M344.632 74.6663L335.057 81.11L344.632 87.6597L335.057 93.9165L344.632 100.302L335.057 106.576L341.428 110.61L344.632 112.639" stroke="#43ADE6" stroke-width="2"/>
<path d="M344.632 222.07L335.057 228.514L344.632 235.064L335.057 241.321L344.632 247.706L335.057 253.98L341.428 258.014L344.632 260.043" stroke="#43ADE6" stroke-width="2"/>
<path d="M344.632 111.517L335.057 117.961L344.632 124.511L335.057 130.768L344.632 137.153L335.057 143.427L341.428 147.461L344.632 149.49" stroke="#43ADE6" stroke-width="2"/>
<path d="M327.984 0.964355L318.41 7.40808L327.984 13.9578L318.41 20.2146L327.984 26.6003L318.41 32.8741L324.781 36.9084L327.984 38.937" stroke="#43ADE6" stroke-width="2"/>
<path d="M327.984 148.368L318.41 154.812L327.984 161.362L318.41 167.619L327.984 174.004L318.41 180.278L324.781 184.312L327.984 186.341" stroke="#43ADE6" stroke-width="2"/>
<path d="M327.984 37.8154L318.41 44.2592L327.984 50.8088L318.41 57.0656L327.984 63.4514L318.41 69.7252L324.781 73.7595L327.984 75.788" stroke="#43ADE6" stroke-width="2"/>
<path d="M327.984 185.219L318.41 191.663L327.984 198.213L318.41 204.469L327.984 210.855L318.41 217.129L324.781 221.163L327.984 223.192" stroke="#43ADE6" stroke-width="2"/>
<path d="M327.984 74.6663L318.41 81.11L327.984 87.6597L318.41 93.9165L327.984 100.302L318.41 106.576L324.781 110.61L327.984 112.639" stroke="#43ADE6" stroke-width="2"/>
<path d="M327.984 222.071L318.41 228.514L327.984 235.064L318.41 241.321L327.984 247.707L318.41 253.98L324.781 258.015L327.984 260.043" stroke="#43ADE6" stroke-width="2"/>
<path d="M327.984 111.518L318.41 117.961L327.984 124.511L318.41 130.768L327.984 137.154L318.41 143.427L324.781 147.462L327.984 149.49" stroke="#43ADE6" stroke-width="2"/>
<path d="M311.337 0.964355L301.762 7.40808L311.337 13.9578L301.762 20.2146L311.337 26.6003L301.762 32.8741L308.133 36.9084L311.337 38.937" stroke="#43ADE6" stroke-width="2"/>
<path d="M311.337 148.368L301.762 154.812L311.337 161.362L301.762 167.619L311.337 174.004L301.762 180.278L308.133 184.312L311.337 186.341" stroke="#43ADE6" stroke-width="2"/>
<path d="M311.337 37.8154L301.762 44.2592L311.337 50.8088L301.762 57.0656L311.337 63.4514L301.762 69.7252L308.133 73.7595L311.337 75.788" stroke="#43ADE6" stroke-width="2"/>
<path d="M311.337 185.219L301.762 191.663L311.337 198.213L301.762 204.469L311.337 210.855L301.762 217.129L308.133 221.163L311.337 223.192" stroke="#43ADE6" stroke-width="2"/>
<path d="M311.337 74.6663L301.762 81.11L311.337 87.6597L301.762 93.9165L311.337 100.302L301.762 106.576L308.133 110.61L311.337 112.639" stroke="#43ADE6" stroke-width="2"/>
<path d="M311.337 222.071L301.762 228.514L311.337 235.064L301.762 241.321L311.337 247.707L301.762 253.98L308.133 258.015L311.337 260.043" stroke="#43ADE6" stroke-width="2"/>
<path d="M311.337 111.518L301.762 117.961L311.337 124.511L301.762 130.768L311.337 137.154L301.762 143.427L308.133 147.462L311.337 149.49" stroke="#43ADE6" stroke-width="2"/>
<path d="M294.689 0.964355L285.115 7.40808L294.689 13.9578L285.115 20.2146L294.689 26.6003L285.115 32.8741L291.486 36.9084L294.689 38.937" stroke="#43ADE6" stroke-width="2"/>
<path d="M294.689 148.368L285.115 154.812L294.689 161.362L285.115 167.619L294.689 174.004L285.115 180.278L291.486 184.312L294.689 186.341" stroke="#43ADE6" stroke-width="2"/>
<path d="M294.689 37.8154L285.115 44.2592L294.689 50.8088L285.115 57.0656L294.689 63.4514L285.115 69.7252L291.486 73.7595L294.689 75.788" stroke="#43ADE6" stroke-width="2"/>
<path d="M294.689 185.219L285.115 191.663L294.689 198.213L285.115 204.469L294.689 210.855L285.115 217.129L291.486 221.163L294.689 223.192" stroke="#43ADE6" stroke-width="2"/>
<path d="M294.689 74.6663L285.115 81.11L294.689 87.6597L285.115 93.9165L294.689 100.302L285.115 106.576L291.486 110.61L294.689 112.639" stroke="#43ADE6" stroke-width="2"/>
<path d="M294.689 222.071L285.115 228.514L294.689 235.064L285.115 241.321L294.689 247.707L285.115 253.98L291.486 258.015L294.689 260.043" stroke="#43ADE6" stroke-width="2"/>
<path d="M294.689 111.517L285.115 117.961L294.689 124.511L285.115 130.768L294.689 137.153L285.115 143.427L291.486 147.461L294.689 149.49" stroke="#43ADE6" stroke-width="2"/>
<path d="M278.043 0.964355L268.468 7.40808L278.043 13.9578L268.468 20.2146L278.043 26.6003L268.468 32.8741L274.839 36.9084L278.043 38.937" stroke="#43ADE6" stroke-width="2"/>
<path d="M278.043 148.368L268.468 154.812L278.043 161.362L268.468 167.619L278.043 174.004L268.468 180.278L274.839 184.312L278.043 186.341" stroke="#43ADE6" stroke-width="2"/>
<path d="M278.043 37.8154L268.468 44.2592L278.043 50.8088L268.468 57.0656L278.043 63.4514L268.468 69.7252L274.839 73.7595L278.043 75.788" stroke="#43ADE6" stroke-width="2"/>
<path d="M278.043 185.219L268.468 191.663L278.043 198.213L268.468 204.469L278.043 210.855L268.468 217.129L274.839 221.163L278.043 223.192" stroke="#43ADE6" stroke-width="2"/>
<path d="M278.043 74.6663L268.468 81.11L278.043 87.6597L268.468 93.9165L278.043 100.302L268.468 106.576L274.839 110.61L278.043 112.639" stroke="#43ADE6" stroke-width="2"/>
<path d="M278.043 222.071L268.468 228.514L278.043 235.064L268.468 241.321L278.043 247.707L268.468 253.98L274.839 258.015L278.043 260.043" stroke="#43ADE6" stroke-width="2"/>
<path d="M278.043 111.517L268.468 117.961L278.043 124.511L268.468 130.768L278.043 137.153L268.468 143.427L274.839 147.461L278.043 149.49" stroke="#43ADE6" stroke-width="2"/>
<path d="M261.395 0.964355L251.82 7.40808L261.395 13.9578L251.82 20.2146L261.395 26.6003L251.82 32.8741L258.191 36.9084L261.395 38.937" stroke="#43ADE6" stroke-width="2"/>
<path d="M261.395 148.368L251.82 154.812L261.395 161.362L251.82 167.619L261.395 174.004L251.82 180.278L258.191 184.312L261.395 186.341" stroke="#43ADE6" stroke-width="2"/>
<path d="M261.395 37.8154L251.82 44.2592L261.395 50.8088L251.82 57.0656L261.395 63.4514L251.82 69.7252L258.191 73.7595L261.395 75.788" stroke="#43ADE6" stroke-width="2"/>
<path d="M261.395 185.219L251.82 191.663L261.395 198.213L251.82 204.469L261.395 210.855L251.82 217.129L258.191 221.163L261.395 223.192" stroke="#43ADE6" stroke-width="2"/>
<path d="M261.395 74.6663L251.82 81.11L261.395 87.6597L251.82 93.9165L261.395 100.302L251.82 106.576L258.191 110.61L261.395 112.639" stroke="#43ADE6" stroke-width="2"/>
<path d="M261.395 222.071L251.82 228.514L261.395 235.064L251.82 241.321L261.395 247.707L251.82 253.98L258.191 258.015L261.395 260.043" stroke="#43ADE6" stroke-width="2"/>
<path d="M261.395 111.518L251.82 117.961L261.395 124.511L251.82 130.768L261.395 137.154L251.82 143.427L258.191 147.462L261.395 149.49" stroke="#43ADE6" stroke-width="2"/>
<path d="M244.747 0.964355L235.172 7.40808L244.747 13.9578L235.172 20.2146L244.747 26.6003L235.172 32.8741L241.543 36.9084L244.747 38.937" stroke="#43ADE6" stroke-width="2"/>
<path d="M244.747 148.368L235.172 154.812L244.747 161.362L235.172 167.619L244.747 174.004L235.172 180.278L241.543 184.312L244.747 186.341" stroke="#43ADE6" stroke-width="2"/>
<path d="M244.747 37.8154L235.172 44.2592L244.747 50.8088L235.172 57.0656L244.747 63.4514L235.172 69.7252L241.543 73.7595L244.747 75.788" stroke="#43ADE6" stroke-width="2"/>
<path d="M244.747 185.219L235.172 191.663L244.747 198.213L235.172 204.469L244.747 210.855L235.172 217.129L241.543 221.163L244.747 223.192" stroke="#43ADE6" stroke-width="2"/>
<path d="M244.747 74.6663L235.172 81.11L244.747 87.6597L235.172 93.9165L244.747 100.302L235.172 106.576L241.543 110.61L244.747 112.639" stroke="#43ADE6" stroke-width="2"/>
<path d="M244.747 222.071L235.172 228.514L244.747 235.064L235.172 241.321L244.747 247.707L235.172 253.98L241.543 258.015L244.747 260.043" stroke="#43ADE6" stroke-width="2"/>
<path d="M244.747 111.517L235.172 117.961L244.747 124.511L235.172 130.768L244.747 137.153L235.172 143.427L241.543 147.461L244.747 149.49" stroke="#43ADE6" stroke-width="2"/>
<path d="M228.101 0.964355L218.526 7.40808L228.101 13.9578L218.526 20.2146L228.101 26.6003L218.526 32.8741L224.897 36.9084L228.101 38.937" stroke="#43ADE6" stroke-width="2"/>
<path d="M228.101 148.368L218.526 154.812L228.101 161.362L218.526 167.619L228.101 174.004L218.526 180.278L224.897 184.312L228.101 186.341" stroke="#43ADE6" stroke-width="2"/>
<path d="M228.101 37.8154L218.526 44.2592L228.101 50.8088L218.526 57.0656L228.101 63.4514L218.526 69.7252L224.897 73.7595L228.101 75.788" stroke="#43ADE6" stroke-width="2"/>
<path d="M228.101 185.219L218.526 191.663L228.101 198.213L218.526 204.469L228.101 210.855L218.526 217.129L224.897 221.163L228.101 223.192" stroke="#43ADE6" stroke-width="2"/>
<path d="M228.101 74.6663L218.526 81.11L228.101 87.6597L218.526 93.9165L228.101 100.302L218.526 106.576L224.897 110.61L228.101 112.639" stroke="#43ADE6" stroke-width="2"/>
<path d="M228.101 222.071L218.526 228.514L228.101 235.064L218.526 241.321L228.101 247.707L218.526 253.98L224.897 258.015L228.101 260.043" stroke="#43ADE6" stroke-width="2"/>
<path d="M228.101 111.518L218.526 117.961L228.101 124.511L218.526 130.768L228.101 137.154L218.526 143.427L224.897 147.462L228.101 149.49" stroke="#43ADE6" stroke-width="2"/>
<path d="M211.453 0.964355L201.878 7.40808L211.453 13.9578L201.878 20.2146L211.453 26.6003L201.878 32.8741L208.25 36.9084L211.453 38.937" stroke="#43ADE6" stroke-width="2"/>
<path d="M211.453 148.368L201.878 154.812L211.453 161.362L201.878 167.619L211.453 174.004L201.878 180.278L208.25 184.312L211.453 186.341" stroke="#43ADE6" stroke-width="2"/>
<path d="M211.453 37.8154L201.878 44.2592L211.453 50.8088L201.878 57.0656L211.453 63.4514L201.878 69.7252L208.25 73.7595L211.453 75.788" stroke="#43ADE6" stroke-width="2"/>
<path d="M211.453 185.219L201.878 191.663L211.453 198.213L201.878 204.469L211.453 210.855L201.878 217.129L208.25 221.163L211.453 223.192" stroke="#43ADE6" stroke-width="2"/>
<path d="M211.453 74.6663L201.878 81.11L211.453 87.6597L201.878 93.9165L211.453 100.302L201.878 106.576L208.25 110.61L211.453 112.639" stroke="#43ADE6" stroke-width="2"/>
<path d="M211.453 222.071L201.878 228.514L211.453 235.064L201.878 241.321L211.453 247.707L201.878 253.98L208.25 258.015L211.453 260.043" stroke="#43ADE6" stroke-width="2"/>
<path d="M211.453 111.518L201.878 117.961L211.453 124.511L201.878 130.768L211.453 137.154L201.878 143.427L208.25 147.462L211.453 149.49" stroke="#43ADE6" stroke-width="2"/>
<path d="M194.806 0.964355L185.231 7.40808L194.806 13.9578L185.231 20.2146L194.806 26.6003L185.231 32.8741L191.602 36.9084L194.806 38.937" stroke="#43ADE6" stroke-width="2"/>
<path d="M194.806 148.368L185.231 154.812L194.806 161.362L185.231 167.619L194.806 174.004L185.231 180.278L191.602 184.312L194.806 186.341" stroke="#43ADE6" stroke-width="2"/>
<path d="M194.806 37.8154L185.231 44.2592L194.806 50.8088L185.231 57.0656L194.806 63.4514L185.231 69.7252L191.602 73.7595L194.806 75.788" stroke="#43ADE6" stroke-width="2"/>
<path d="M194.806 185.219L185.231 191.663L194.806 198.213L185.231 204.469L194.806 210.855L185.231 217.129L191.602 221.163L194.806 223.192" stroke="#43ADE6" stroke-width="2"/>
<path d="M194.806 74.6663L185.231 81.11L194.806 87.6597L185.231 93.9165L194.806 100.302L185.231 106.576L191.602 110.61L194.806 112.639" stroke="#43ADE6" stroke-width="2"/>
<path d="M194.806 222.07L185.231 228.514L194.806 235.064L185.231 241.321L194.806 247.706L185.231 253.98L191.602 258.014L194.806 260.043" stroke="#43ADE6" stroke-width="2"/>
<path d="M194.806 111.518L185.231 117.961L194.806 124.511L185.231 130.768L194.806 137.154L185.231 143.427L191.602 147.462L194.806 149.49" stroke="#43ADE6" stroke-width="2"/>
<path d="M178.158 0.964355L168.583 7.40808L178.158 13.9578L168.583 20.2146L178.158 26.6003L168.583 32.8741L174.955 36.9084L178.158 38.937" stroke="#43ADE6" stroke-width="2"/>
<path d="M178.158 148.368L168.583 154.812L178.158 161.362L168.583 167.619L178.158 174.004L168.583 180.278L174.955 184.312L178.158 186.341" stroke="#43ADE6" stroke-width="2"/>
<path d="M178.158 37.8154L168.583 44.2592L178.158 50.8088L168.583 57.0656L178.158 63.4514L168.583 69.7252L174.955 73.7595L178.158 75.788" stroke="#43ADE6" stroke-width="2"/>
<path d="M178.158 185.219L168.583 191.663L178.158 198.213L168.583 204.469L178.158 210.855L168.583 217.129L174.955 221.163L178.158 223.192" stroke="#43ADE6" stroke-width="2"/>
<path d="M178.158 74.6665L168.583 81.1102L178.158 87.6599L168.583 93.9167L178.158 100.302L168.583 106.576L174.955 110.611L178.158 112.639" stroke="#43ADE6" stroke-width="2"/>
<path d="M178.158 222.07L168.583 228.514L178.158 235.064L168.583 241.321L178.158 247.706L168.583 253.98L174.955 258.014L178.158 260.043" stroke="#43ADE6" stroke-width="2"/>
<path d="M178.158 111.518L168.583 117.961L178.158 124.511L168.583 130.768L178.158 137.154L168.583 143.427L174.955 147.462L178.158 149.49" stroke="#43ADE6" stroke-width="2"/>
<path d="M161.511 0.964355L151.936 7.40808L161.511 13.9578L151.936 20.2146L161.511 26.6003L151.936 32.8741L158.307 36.9084L161.511 38.937" stroke="#43ADE6" stroke-width="2"/>
<path d="M161.511 148.368L151.936 154.812L161.511 161.362L151.936 167.619L161.511 174.004L151.936 180.278L158.307 184.312L161.511 186.341" stroke="#43ADE6" stroke-width="2"/>
<path d="M161.511 37.8154L151.936 44.2592L161.511 50.8088L151.936 57.0656L161.511 63.4514L151.936 69.7252L158.307 73.7595L161.511 75.788" stroke="#43ADE6" stroke-width="2"/>
<path d="M161.511 185.219L151.936 191.663L161.511 198.213L151.936 204.469L161.511 210.855L151.936 217.129L158.307 221.163L161.511 223.192" stroke="#43ADE6" stroke-width="2"/>
<path d="M161.511 74.6665L151.936 81.1102L161.511 87.6599L151.936 93.9167L161.511 100.302L151.936 106.576L158.307 110.611L161.511 112.639" stroke="#43ADE6" stroke-width="2"/>
<path d="M161.511 222.071L151.936 228.514L161.511 235.064L151.936 241.321L161.511 247.707L151.936 253.98L158.307 258.015L161.511 260.043" stroke="#43ADE6" stroke-width="2"/>
<path d="M161.511 111.517L151.936 117.961L161.511 124.511L151.936 130.768L161.511 137.153L151.936 143.427L158.307 147.461L161.511 149.49" stroke="#43ADE6" stroke-width="2"/>
<path d="M144.863 0.964355L135.288 7.40808L144.863 13.9578L135.288 20.2146L144.863 26.6003L135.288 32.8741L141.66 36.9084L144.863 38.937" stroke="#43ADE6" stroke-width="2"/>
<path d="M144.863 148.368L135.288 154.812L144.863 161.362L135.288 167.619L144.863 174.004L135.288 180.278L141.66 184.312L144.863 186.341" stroke="#43ADE6" stroke-width="2"/>
<path d="M144.863 37.8154L135.288 44.2592L144.863 50.8088L135.288 57.0656L144.863 63.4514L135.288 69.7252L141.66 73.7595L144.863 75.788" stroke="#43ADE6" stroke-width="2"/>
<path d="M144.863 185.219L135.288 191.663L144.863 198.213L135.288 204.469L144.863 210.855L135.288 217.129L141.66 221.163L144.863 223.192" stroke="#43ADE6" stroke-width="2"/>
<path d="M144.863 74.6663L135.288 81.11L144.863 87.6597L135.288 93.9165L144.863 100.302L135.288 106.576L141.66 110.61L144.863 112.639" stroke="#43ADE6" stroke-width="2"/>
<path d="M144.863 222.07L135.288 228.514L144.863 235.064L135.288 241.321L144.863 247.706L135.288 253.98L141.66 258.014L144.863 260.043" stroke="#43ADE6" stroke-width="2"/>
<path d="M144.863 111.517L135.288 117.961L144.863 124.511L135.288 130.768L144.863 137.153L135.288 143.427L141.66 147.461L144.863 149.49" stroke="#43ADE6" stroke-width="2"/>
<path d="M128.216 0.964355L118.641 7.40808L128.216 13.9578L118.641 20.2146L128.216 26.6003L118.641 32.8741L125.012 36.9084L128.216 38.937" stroke="#43ADE6" stroke-width="2"/>
<path d="M128.216 148.368L118.641 154.812L128.216 161.362L118.641 167.619L128.216 174.004L118.641 180.278L125.012 184.312L128.216 186.341" stroke="#43ADE6" stroke-width="2"/>
<path d="M128.216 37.8154L118.641 44.2592L128.216 50.8088L118.641 57.0656L128.216 63.4514L118.641 69.7252L125.012 73.7595L128.216 75.788" stroke="#43ADE6" stroke-width="2"/>
<path d="M128.216 185.219L118.641 191.663L128.216 198.213L118.641 204.47L128.216 210.855L118.641 217.129L125.012 221.164L128.216 223.192" stroke="#43ADE6" stroke-width="2"/>
<path d="M128.216 74.6665L118.641 81.1102L128.216 87.6599L118.641 93.9167L128.216 100.302L118.641 106.576L125.012 110.611L128.216 112.639" stroke="#43ADE6" stroke-width="2"/>
<path d="M128.216 222.071L118.641 228.514L128.216 235.064L118.641 241.321L128.216 247.707L118.641 253.98L125.012 258.015L128.216 260.043" stroke="#43ADE6" stroke-width="2"/>
<path d="M128.216 111.518L118.641 117.961L128.216 124.511L118.641 130.768L128.216 137.154L118.641 143.427L125.012 147.462L128.216 149.49" stroke="#43ADE6" stroke-width="2"/>
<path d="M111.568 0.964355L101.994 7.40808L111.568 13.9578L101.994 20.2146L111.568 26.6003L101.994 32.8741L108.365 36.9084L111.568 38.937" stroke="#43ADE6" stroke-width="2"/>
<path d="M111.568 148.368L101.994 154.812L111.568 161.362L101.994 167.619L111.568 174.004L101.994 180.278L108.365 184.312L111.568 186.341" stroke="#43ADE6" stroke-width="2"/>
<path d="M111.568 37.8154L101.994 44.2592L111.568 50.8088L101.994 57.0656L111.568 63.4514L101.994 69.7252L108.365 73.7595L111.568 75.788" stroke="#43ADE6" stroke-width="2"/>
<path d="M111.568 185.219L101.994 191.663L111.568 198.213L101.994 204.469L111.568 210.855L101.994 217.129L108.365 221.163L111.568 223.192" stroke="#43ADE6" stroke-width="2"/>
<path d="M111.568 74.6665L101.994 81.1102L111.568 87.6599L101.994 93.9167L111.568 100.302L101.994 106.576L108.365 110.611L111.568 112.639" stroke="#43ADE6" stroke-width="2"/>
<path d="M111.568 222.071L101.994 228.514L111.568 235.064L101.994 241.321L111.568 247.707L101.994 253.98L108.365 258.015L111.568 260.043" stroke="#43ADE6" stroke-width="2"/>
<path d="M111.568 111.517L101.994 117.961L111.568 124.511L101.994 130.768L111.568 137.153L101.994 143.427L108.365 147.461L111.568 149.49" stroke="#43ADE6" stroke-width="2"/>
<path d="M94.9209 0.964355L85.3461 7.40808L94.9209 13.9578L85.3461 20.2146L94.9209 26.6003L85.3461 32.8741L91.7173 36.9084L94.9209 38.937" stroke="#43ADE6" stroke-width="2"/>
<path d="M94.9209 148.368L85.3461 154.812L94.9209 161.362L85.3461 167.619L94.9209 174.004L85.3461 180.278L91.7173 184.312L94.9209 186.341" stroke="#43ADE6" stroke-width="2"/>
<path d="M94.9209 37.8154L85.3461 44.2592L94.9209 50.8088L85.3461 57.0656L94.9209 63.4514L85.3461 69.7252L91.7173 73.7595L94.9209 75.788" stroke="#43ADE6" stroke-width="2"/>
<path d="M94.9209 185.219L85.3461 191.663L94.9209 198.213L85.3461 204.469L94.9209 210.855L85.3461 217.129L91.7173 221.163L94.9209 223.192" stroke="#43ADE6" stroke-width="2"/>
<path d="M94.9209 74.6663L85.3461 81.11L94.9209 87.6597L85.3461 93.9165L94.9209 100.302L85.3461 106.576L91.7173 110.61L94.9209 112.639" stroke="#43ADE6" stroke-width="2"/>
<path d="M94.9209 222.07L85.3461 228.514L94.9209 235.064L85.3461 241.321L94.9209 247.706L85.3461 253.98L91.7173 258.014L94.9209 260.043" stroke="#43ADE6" stroke-width="2"/>
<path d="M94.9209 111.517L85.3461 117.961L94.9209 124.511L85.3461 130.768L94.9209 137.153L85.3461 143.427L91.7173 147.461L94.9209 149.49" stroke="#43ADE6" stroke-width="2"/>
<path d="M78.2734 0.964355L68.6986 7.40808L78.2734 13.9578L68.6986 20.2146L78.2734 26.6003L68.6986 32.8741L75.0698 36.9084L78.2734 38.937" stroke="#43ADE6" stroke-width="2"/>
<path d="M78.2734 148.368L68.6986 154.812L78.2734 161.362L68.6986 167.619L78.2734 174.004L68.6986 180.278L75.0698 184.312L78.2734 186.341" stroke="#43ADE6" stroke-width="2"/>
<path d="M78.2734 37.8154L68.6986 44.2592L78.2734 50.8088L68.6986 57.0656L78.2734 63.4514L68.6986 69.7252L75.0698 73.7595L78.2734 75.788" stroke="#43ADE6" stroke-width="2"/>
<path d="M78.2734 185.219L68.6986 191.663L78.2734 198.213L68.6986 204.47L78.2734 210.855L68.6986 217.129L75.0698 221.164L78.2734 223.192" stroke="#43ADE6" stroke-width="2"/>
<path d="M78.2734 74.6665L68.6986 81.1102L78.2734 87.6599L68.6986 93.9167L78.2734 100.302L68.6986 106.576L75.0698 110.611L78.2734 112.639" stroke="#43ADE6" stroke-width="2"/>
<path d="M78.2734 222.071L68.6986 228.514L78.2734 235.064L68.6986 241.321L78.2734 247.707L68.6986 253.98L75.0698 258.015L78.2734 260.043" stroke="#43ADE6" stroke-width="2"/>
<path d="M78.2734 111.518L68.6986 117.961L78.2734 124.511L68.6986 130.768L78.2734 137.154L68.6986 143.427L75.0698 147.462L78.2734 149.49" stroke="#43ADE6" stroke-width="2"/>
<path d="M61.626 0.964355L52.0511 7.40808L61.626 13.9578L52.0511 20.2146L61.626 26.6003L52.0511 32.8741L58.4224 36.9084L61.626 38.937" stroke="#43ADE6" stroke-width="2"/>
<path d="M61.626 148.368L52.0511 154.812L61.626 161.362L52.0511 167.619L61.626 174.004L52.0511 180.278L58.4224 184.312L61.626 186.341" stroke="#43ADE6" stroke-width="2"/>
<path d="M61.626 37.8154L52.0511 44.2592L61.626 50.8088L52.0511 57.0656L61.626 63.4514L52.0511 69.7252L58.4224 73.7595L61.626 75.788" stroke="#43ADE6" stroke-width="2"/>
<path d="M61.626 185.219L52.0511 191.663L61.626 198.213L52.0511 204.469L61.626 210.855L52.0511 217.129L58.4224 221.163L61.626 223.192" stroke="#43ADE6" stroke-width="2"/>
<path d="M61.626 74.6665L52.0511 81.1102L61.626 87.6599L52.0511 93.9167L61.626 100.302L52.0511 106.576L58.4224 110.611L61.626 112.639" stroke="#43ADE6" stroke-width="2"/>
<path d="M61.626 222.071L52.0511 228.514L61.626 235.064L52.0511 241.321L61.626 247.707L52.0511 253.98L58.4224 258.015L61.626 260.043" stroke="#43ADE6" stroke-width="2"/>
<path d="M61.626 111.517L52.0511 117.961L61.626 124.511L52.0511 130.768L61.626 137.153L52.0511 143.427L58.4224 147.461L61.626 149.49" stroke="#43ADE6" stroke-width="2"/>
<path d="M44.9795 0.964355L35.4047 7.40808L44.9795 13.9578L35.4047 20.2146L44.9795 26.6003L35.4047 32.8741L41.7759 36.9084L44.9795 38.937" stroke="#43ADE6" stroke-width="2"/>
<path d="M44.9795 148.368L35.4047 154.812L44.9795 161.362L35.4047 167.619L44.9795 174.004L35.4047 180.278L41.7759 184.312L44.9795 186.341" stroke="#43ADE6" stroke-width="2"/>
<path d="M44.9795 37.8154L35.4047 44.2592L44.9795 50.8088L35.4047 57.0656L44.9795 63.4514L35.4047 69.7252L41.7759 73.7595L44.9795 75.788" stroke="#43ADE6" stroke-width="2"/>
<path d="M44.9795 185.219L35.4047 191.663L44.9795 198.213L35.4047 204.47L44.9795 210.855L35.4047 217.129L41.7759 221.164L44.9795 223.192" stroke="#43ADE6" stroke-width="2"/>
<path d="M44.9795 74.6665L35.4047 81.1102L44.9795 87.6599L35.4047 93.9167L44.9795 100.302L35.4047 106.576L41.7759 110.611L44.9795 112.639" stroke="#43ADE6" stroke-width="2"/>
<path d="M44.9795 222.071L35.4047 228.514L44.9795 235.064L35.4047 241.321L44.9795 247.707L35.4047 253.98L41.7759 258.015L44.9795 260.043" stroke="#43ADE6" stroke-width="2"/>
<path d="M44.9795 111.518L35.4047 117.961L44.9795 124.511L35.4047 130.768L44.9795 137.154L35.4047 143.427L41.7759 147.462L44.9795 149.49" stroke="#43ADE6" stroke-width="2"/>
<path d="M28.3311 0.964355L18.7562 7.40808L28.3311 13.9578L18.7562 20.2146L28.3311 26.6003L18.7562 32.8741L25.1275 36.9084L28.3311 38.937" stroke="#43ADE6" stroke-width="2"/>
<path d="M28.3311 148.368L18.7562 154.812L28.3311 161.362L18.7562 167.619L28.3311 174.004L18.7562 180.278L25.1275 184.312L28.3311 186.341" stroke="#43ADE6" stroke-width="2"/>
<path d="M28.3311 37.8154L18.7562 44.2592L28.3311 50.8088L18.7562 57.0656L28.3311 63.4514L18.7562 69.7252L25.1275 73.7595L28.3311 75.788" stroke="#43ADE6" stroke-width="2"/>
<path d="M28.3311 185.219L18.7562 191.663L28.3311 198.213L18.7562 204.47L28.3311 210.855L18.7562 217.129L25.1275 221.164L28.3311 223.192" stroke="#43ADE6" stroke-width="2"/>
<path d="M28.3311 74.6665L18.7562 81.1102L28.3311 87.6599L18.7562 93.9167L28.3311 100.302L18.7562 106.576L25.1275 110.611L28.3311 112.639" stroke="#43ADE6" stroke-width="2"/>
<path d="M28.3311 222.071L18.7562 228.514L28.3311 235.064L18.7562 241.321L28.3311 247.707L18.7562 253.98L25.1275 258.015L28.3311 260.043" stroke="#43ADE6" stroke-width="2"/>
<path d="M28.3311 111.518L18.7562 117.961L28.3311 124.511L18.7562 130.768L28.3311 137.154L18.7562 143.427L25.1275 147.462L28.3311 149.49" stroke="#43ADE6" stroke-width="2"/>
<path d="M11.6846 0.964355L2.10974 7.40808L11.6846 13.9578L2.10974 20.2146L11.6846 26.6003L2.10974 32.8741L8.48098 36.9084L11.6846 38.937" stroke="#43ADE6" stroke-width="2"/>
<path d="M11.6846 148.368L2.10975 154.812L11.6846 161.362L2.10975 167.619L11.6846 174.004L2.10975 180.278L8.48098 184.312L11.6846 186.341" stroke="#43ADE6" stroke-width="2"/>
<path d="M11.6846 37.8154L2.10975 44.2592L11.6846 50.8088L2.10975 57.0656L11.6846 63.4514L2.10975 69.7252L8.48098 73.7595L11.6846 75.788" stroke="#43ADE6" stroke-width="2"/>
<path d="M11.6846 185.219L2.10975 191.663L11.6846 198.213L2.10975 204.469L11.6846 210.855L2.10975 217.129L8.48098 221.163L11.6846 223.192" stroke="#43ADE6" stroke-width="2"/>
<path d="M11.6846 74.6665L2.10975 81.1102L11.6846 87.6599L2.10975 93.9167L11.6846 100.302L2.10975 106.576L8.48098 110.611L11.6846 112.639" stroke="#43ADE6" stroke-width="2"/>
<path d="M11.6846 222.071L2.10974 228.514L11.6846 235.064L2.10974 241.321L11.6846 247.707L2.10974 253.98L8.48098 258.015L11.6846 260.043" stroke="#43ADE6" stroke-width="2"/>
<path d="M11.6846 111.517L2.10975 117.961L11.6846 124.511L2.10975 130.768L11.6846 137.153L2.10975 143.427L8.48098 147.461L11.6846 149.49" stroke="#43ADE6" stroke-width="2"/>
<path d="M394.574 258.922L384.999 265.365L394.574 271.915L384.999 278.172L394.574 284.558L384.999 290.831L391.371 294.866L394.574 296.894" stroke="#43ADE6" stroke-width="2"/>
<path d="M394.574 406.325L384.999 412.769L394.574 419.319L384.999 425.576L394.574 431.961L384.999 438.235L391.371 442.27L394.574 444.298" stroke="#43ADE6" stroke-width="2"/>
<path d="M394.574 295.772L384.999 302.216L394.574 308.766L384.999 315.022L394.574 321.408L384.999 327.682L391.371 331.716L394.574 333.745" stroke="#43ADE6" stroke-width="2"/>
<path d="M394.574 443.177L384.999 449.62L394.574 456.17L384.999 462.427L394.574 468.812L384.999 475.086L391.371 479.121L394.574 481.149" stroke="#43ADE6" stroke-width="2"/>
<path d="M394.574 332.624L384.999 339.067L394.574 345.617L384.999 351.874L394.574 358.259L384.999 364.533L391.371 368.568L394.574 370.596" stroke="#43ADE6" stroke-width="2"/>
<path d="M394.574 480.027L384.999 486.471L394.574 493.021L384.999 499.278L394.574 505.663L384.999 511.937L391.371 515.971L394.574 518" stroke="#43ADE6" stroke-width="2"/>
<path d="M394.574 369.474L384.999 375.918L394.574 382.468L384.999 388.725L394.574 395.11L384.999 401.384L391.371 405.418L394.574 407.447" stroke="#43ADE6" stroke-width="2"/>
<path d="M377.927 258.921L368.352 265.365L377.927 271.915L368.352 278.172L377.927 284.557L368.352 290.831L374.723 294.865L377.927 296.894" stroke="#43ADE6" stroke-width="2"/>
<path d="M377.927 406.325L368.352 412.769L377.927 419.319L368.352 425.576L377.927 431.961L368.352 438.235L374.723 442.269L377.927 444.298" stroke="#43ADE6" stroke-width="2"/>
<path d="M377.927 295.772L368.352 302.216L377.927 308.766L368.352 315.023L377.927 321.408L368.352 327.682L374.723 331.717L377.927 333.745" stroke="#43ADE6" stroke-width="2"/>
<path d="M377.927 443.177L368.352 449.62L377.927 456.17L368.352 462.427L377.927 468.812L368.352 475.086L374.723 479.121L377.927 481.149" stroke="#43ADE6" stroke-width="2"/>
<path d="M377.927 332.623L368.352 339.067L377.927 345.617L368.352 351.873L377.927 358.259L368.352 364.533L374.723 368.567L377.927 370.596" stroke="#43ADE6" stroke-width="2"/>
<path d="M377.927 480.028L368.352 486.471L377.927 493.021L368.352 499.278L377.927 505.664L368.352 511.937L374.723 515.972L377.927 518" stroke="#43ADE6" stroke-width="2"/>
<path d="M377.927 369.475L368.352 375.918L377.927 382.468L368.352 388.725L377.927 395.111L368.352 401.384L374.723 405.419L377.927 407.447" stroke="#43ADE6" stroke-width="2"/>
<path d="M361.279 258.921L351.704 265.365L361.279 271.915L351.704 278.172L361.279 284.557L351.704 290.831L358.076 294.865L361.279 296.894" stroke="#43ADE6" stroke-width="2"/>
<path d="M361.279 406.325L351.704 412.769L361.279 419.319L351.704 425.576L361.279 431.961L351.704 438.235L358.076 442.269L361.279 444.298" stroke="#43ADE6" stroke-width="2"/>
<path d="M361.279 295.772L351.704 302.216L361.279 308.766L351.704 315.023L361.279 321.408L351.704 327.682L358.076 331.717L361.279 333.745" stroke="#43ADE6" stroke-width="2"/>
<path d="M361.279 443.177L351.704 449.62L361.279 456.17L351.704 462.427L361.279 468.812L351.704 475.086L358.076 479.121L361.279 481.149" stroke="#43ADE6" stroke-width="2"/>
<path d="M361.279 332.624L351.704 339.068L361.279 345.617L351.704 351.874L361.279 358.26L351.704 364.534L358.076 368.568L361.279 370.596" stroke="#43ADE6" stroke-width="2"/>
<path d="M361.279 480.028L351.704 486.471L361.279 493.021L351.704 499.278L361.279 505.664L351.704 511.937L358.076 515.972L361.279 518" stroke="#43ADE6" stroke-width="2"/>
<path d="M361.279 369.475L351.704 375.918L361.279 382.468L351.704 388.725L361.279 395.111L351.704 401.384L358.076 405.419L361.279 407.447" stroke="#43ADE6" stroke-width="2"/>
<path d="M344.632 258.921L335.057 265.365L344.632 271.915L335.057 278.172L344.632 284.557L335.057 290.831L341.428 294.865L344.632 296.894" stroke="#43ADE6" stroke-width="2"/>
<path d="M344.632 406.325L335.057 412.769L344.632 419.319L335.057 425.576L344.632 431.961L335.057 438.235L341.428 442.27L344.632 444.298" stroke="#43ADE6" stroke-width="2"/>
<path d="M344.632 295.772L335.057 302.216L344.632 308.766L335.057 315.023L344.632 321.408L335.057 327.682L341.428 331.717L344.632 333.745" stroke="#43ADE6" stroke-width="2"/>
<path d="M344.632 443.177L335.057 449.62L344.632 456.17L335.057 462.427L344.632 468.812L335.057 475.086L341.428 479.121L344.632 481.149" stroke="#43ADE6" stroke-width="2"/>
<path d="M344.632 332.624L335.057 339.068L344.632 345.617L335.057 351.874L344.632 358.26L335.057 364.534L341.428 368.568L344.632 370.596" stroke="#43ADE6" stroke-width="2"/>
<path d="M344.632 480.028L335.057 486.471L344.632 493.021L335.057 499.278L344.632 505.664L335.057 511.937L341.428 515.972L344.632 518" stroke="#43ADE6" stroke-width="2"/>
<path d="M344.632 369.475L335.057 375.918L344.632 382.468L335.057 388.725L344.632 395.111L335.057 401.384L341.428 405.419L344.632 407.447" stroke="#43ADE6" stroke-width="2"/>
<path d="M327.984 258.921L318.41 265.365L327.984 271.915L318.41 278.172L327.984 284.557L318.41 290.831L324.781 294.865L327.984 296.894" stroke="#43ADE6" stroke-width="2"/>
<path d="M327.984 406.325L318.41 412.769L327.984 419.319L318.41 425.576L327.984 431.961L318.41 438.235L324.781 442.27L327.984 444.298" stroke="#43ADE6" stroke-width="2"/>
<path d="M327.984 295.772L318.41 302.216L327.984 308.766L318.41 315.023L327.984 321.408L318.41 327.682L324.781 331.717L327.984 333.745" stroke="#43ADE6" stroke-width="2"/>
<path d="M327.984 443.177L318.41 449.62L327.984 456.17L318.41 462.427L327.984 468.812L318.41 475.086L324.781 479.121L327.984 481.149" stroke="#43ADE6" stroke-width="2"/>
<path d="M327.984 332.624L318.41 339.068L327.984 345.617L318.41 351.874L327.984 358.26L318.41 364.534L324.781 368.568L327.984 370.596" stroke="#43ADE6" stroke-width="2"/>
<path d="M327.984 480.028L318.41 486.471L327.984 493.021L318.41 499.278L327.984 505.664L318.41 511.937L324.781 515.972L327.984 518" stroke="#43ADE6" stroke-width="2"/>
<path d="M327.984 369.475L318.41 375.918L327.984 382.468L318.41 388.725L327.984 395.111L318.41 401.384L324.781 405.419L327.984 407.447" stroke="#43ADE6" stroke-width="2"/>
<path d="M311.336 258.921L301.761 265.365L311.336 271.915L301.761 278.172L311.336 284.557L301.761 290.831L308.132 294.865L311.336 296.894" stroke="#43ADE6" stroke-width="2"/>
<path d="M311.337 406.325L301.762 412.769L311.337 419.319L301.762 425.576L311.337 431.961L301.762 438.235L308.133 442.27L311.337 444.298" stroke="#43ADE6" stroke-width="2"/>
<path d="M311.337 295.772L301.762 302.216L311.337 308.766L301.762 315.023L311.337 321.408L301.762 327.682L308.133 331.717L311.337 333.745" stroke="#43ADE6" stroke-width="2"/>
<path d="M311.337 443.177L301.762 449.62L311.337 456.17L301.762 462.427L311.337 468.812L301.762 475.086L308.133 479.121L311.337 481.149" stroke="#43ADE6" stroke-width="2"/>
<path d="M311.337 332.624L301.762 339.068L311.337 345.617L301.762 351.874L311.337 358.26L301.762 364.534L308.133 368.568L311.337 370.596" stroke="#43ADE6" stroke-width="2"/>
<path d="M311.337 480.028L301.762 486.471L311.337 493.021L301.762 499.278L311.337 505.664L301.762 511.937L308.133 515.972L311.337 518" stroke="#43ADE6" stroke-width="2"/>
<path d="M311.337 369.475L301.762 375.918L311.337 382.468L301.762 388.725L311.337 395.111L301.762 401.384L308.133 405.419L311.337 407.447" stroke="#43ADE6" stroke-width="2"/>
<path d="M294.689 258.921L285.115 265.365L294.689 271.915L285.115 278.172L294.689 284.557L285.115 290.831L291.486 294.865L294.689 296.894" stroke="#43ADE6" stroke-width="2"/>
<path d="M294.689 406.325L285.115 412.769L294.689 419.319L285.115 425.576L294.689 431.961L285.115 438.235L291.486 442.27L294.689 444.298" stroke="#43ADE6" stroke-width="2"/>
<path d="M294.689 295.772L285.115 302.216L294.689 308.766L285.115 315.023L294.689 321.408L285.115 327.682L291.486 331.717L294.689 333.745" stroke="#43ADE6" stroke-width="2"/>
<path d="M294.689 443.177L285.115 449.62L294.689 456.17L285.115 462.427L294.689 468.812L285.115 475.086L291.486 479.121L294.689 481.149" stroke="#43ADE6" stroke-width="2"/>
<path d="M294.689 332.624L285.115 339.068L294.689 345.617L285.115 351.874L294.689 358.26L285.115 364.534L291.486 368.568L294.689 370.596" stroke="#43ADE6" stroke-width="2"/>
<path d="M294.689 480.028L285.115 486.471L294.689 493.021L285.115 499.278L294.689 505.664L285.115 511.937L291.486 515.972L294.689 518" stroke="#43ADE6" stroke-width="2"/>
<path d="M294.689 369.475L285.115 375.918L294.689 382.468L285.115 388.725L294.689 395.111L285.115 401.384L291.486 405.419L294.689 407.447" stroke="#43ADE6" stroke-width="2"/>
<path d="M278.043 258.921L268.468 265.365L278.043 271.915L268.468 278.172L278.043 284.557L268.468 290.831L274.839 294.865L278.043 296.894" stroke="#43ADE6" stroke-width="2"/>
<path d="M278.043 406.325L268.468 412.769L278.043 419.319L268.468 425.576L278.043 431.961L268.468 438.235L274.839 442.27L278.043 444.298" stroke="#43ADE6" stroke-width="2"/>
<path d="M278.043 295.772L268.468 302.216L278.043 308.766L268.468 315.023L278.043 321.408L268.468 327.682L274.839 331.717L278.043 333.745" stroke="#43ADE6" stroke-width="2"/>
<path d="M278.043 443.177L268.468 449.62L278.043 456.17L268.468 462.427L278.043 468.812L268.468 475.086L274.839 479.121L278.043 481.149" stroke="#43ADE6" stroke-width="2"/>
<path d="M278.043 332.624L268.468 339.068L278.043 345.617L268.468 351.874L278.043 358.26L268.468 364.534L274.839 368.568L278.043 370.596" stroke="#43ADE6" stroke-width="2"/>
<path d="M278.043 480.028L268.468 486.471L278.043 493.021L268.468 499.278L278.043 505.664L268.468 511.937L274.839 515.972L278.043 518" stroke="#43ADE6" stroke-width="2"/>
<path d="M278.043 369.475L268.468 375.918L278.043 382.468L268.468 388.725L278.043 395.111L268.468 401.384L274.839 405.419L278.043 407.447" stroke="#43ADE6" stroke-width="2"/>
<path d="M261.395 258.921L251.82 265.365L261.395 271.915L251.82 278.172L261.395 284.557L251.82 290.831L258.191 294.865L261.395 296.894" stroke="#43ADE6" stroke-width="2"/>
<path d="M261.395 406.325L251.82 412.769L261.395 419.319L251.82 425.576L261.395 431.961L251.82 438.235L258.191 442.27L261.395 444.298" stroke="#43ADE6" stroke-width="2"/>
<path d="M261.395 295.772L251.82 302.216L261.395 308.766L251.82 315.023L261.395 321.408L251.82 327.682L258.191 331.717L261.395 333.745" stroke="#43ADE6" stroke-width="2"/>
<path d="M261.395 443.177L251.82 449.62L261.395 456.17L251.82 462.427L261.395 468.812L251.82 475.086L258.191 479.121L261.395 481.149" stroke="#43ADE6" stroke-width="2"/>
<path d="M261.395 332.624L251.82 339.068L261.395 345.617L251.82 351.874L261.395 358.26L251.82 364.534L258.191 368.568L261.395 370.596" stroke="#43ADE6" stroke-width="2"/>
<path d="M261.395 480.028L251.82 486.471L261.395 493.021L251.82 499.278L261.395 505.664L251.82 511.937L258.191 515.972L261.395 518" stroke="#43ADE6" stroke-width="2"/>
<path d="M261.395 369.475L251.82 375.918L261.395 382.468L251.82 388.725L261.395 395.111L251.82 401.384L258.191 405.419L261.395 407.447" stroke="#43ADE6" stroke-width="2"/>
<path d="M244.747 258.921L235.172 265.365L244.747 271.915L235.172 278.172L244.747 284.557L235.172 290.831L241.543 294.865L244.747 296.894" stroke="#43ADE6" stroke-width="2"/>
<path d="M244.747 406.325L235.172 412.769L244.747 419.319L235.172 425.576L244.747 431.961L235.172 438.235L241.543 442.27L244.747 444.298" stroke="#43ADE6" stroke-width="2"/>
<path d="M244.747 295.772L235.172 302.216L244.747 308.766L235.172 315.023L244.747 321.408L235.172 327.682L241.543 331.717L244.747 333.745" stroke="#43ADE6" stroke-width="2"/>
<path d="M244.747 443.177L235.172 449.62L244.747 456.17L235.172 462.427L244.747 468.812L235.172 475.086L241.543 479.121L244.747 481.149" stroke="#43ADE6" stroke-width="2"/>
<path d="M244.747 332.624L235.172 339.068L244.747 345.617L235.172 351.874L244.747 358.26L235.172 364.534L241.543 368.568L244.747 370.596" stroke="#43ADE6" stroke-width="2"/>
<path d="M244.747 480.028L235.172 486.471L244.747 493.021L235.172 499.278L244.747 505.664L235.172 511.937L241.543 515.972L244.747 518" stroke="#43ADE6" stroke-width="2"/>
<path d="M244.747 369.475L235.172 375.918L244.747 382.468L235.172 388.725L244.747 395.111L235.172 401.384L241.543 405.419L244.747 407.447" stroke="#43ADE6" stroke-width="2"/>
<path d="M228.101 258.921L218.526 265.365L228.101 271.915L218.526 278.172L228.101 284.557L218.526 290.831L224.897 294.865L228.101 296.894" stroke="#43ADE6" stroke-width="2"/>
<path d="M228.101 406.325L218.526 412.769L228.101 419.319L218.526 425.576L228.101 431.961L218.526 438.235L224.897 442.27L228.101 444.298" stroke="#43ADE6" stroke-width="2"/>
<path d="M228.101 295.772L218.526 302.216L228.101 308.766L218.526 315.023L228.101 321.408L218.526 327.682L224.897 331.717L228.101 333.745" stroke="#43ADE6" stroke-width="2"/>
<path d="M228.101 443.177L218.526 449.62L228.101 456.17L218.526 462.427L228.101 468.812L218.526 475.086L224.897 479.121L228.101 481.149" stroke="#43ADE6" stroke-width="2"/>
<path d="M228.101 332.624L218.526 339.068L228.101 345.617L218.526 351.874L228.101 358.26L218.526 364.534L224.897 368.568L228.101 370.596" stroke="#43ADE6" stroke-width="2"/>
<path d="M228.101 480.028L218.526 486.471L228.101 493.021L218.526 499.278L228.101 505.664L218.526 511.937L224.897 515.972L228.101 518" stroke="#43ADE6" stroke-width="2"/>
<path d="M228.101 369.475L218.526 375.918L228.101 382.468L218.526 388.725L228.101 395.111L218.526 401.384L224.897 405.419L228.101 407.447" stroke="#43ADE6" stroke-width="2"/>
<path d="M211.453 258.921L201.878 265.365L211.453 271.915L201.878 278.172L211.453 284.557L201.878 290.831L208.25 294.865L211.453 296.894" stroke="#43ADE6" stroke-width="2"/>
<path d="M211.453 406.325L201.878 412.769L211.453 419.319L201.878 425.576L211.453 431.961L201.878 438.235L208.25 442.27L211.453 444.298" stroke="#43ADE6" stroke-width="2"/>
<path d="M211.453 295.772L201.878 302.216L211.453 308.766L201.878 315.023L211.453 321.408L201.878 327.682L208.25 331.717L211.453 333.745" stroke="#43ADE6" stroke-width="2"/>
<path d="M211.453 443.177L201.878 449.62L211.453 456.17L201.878 462.427L211.453 468.812L201.878 475.086L208.25 479.121L211.453 481.149" stroke="#43ADE6" stroke-width="2"/>
<path d="M211.453 332.624L201.878 339.068L211.453 345.617L201.878 351.874L211.453 358.26L201.878 364.534L208.25 368.568L211.453 370.596" stroke="#43ADE6" stroke-width="2"/>
<path d="M211.453 480.028L201.878 486.471L211.453 493.021L201.878 499.278L211.453 505.664L201.878 511.937L208.25 515.972L211.453 518" stroke="#43ADE6" stroke-width="2"/>
<path d="M211.453 369.475L201.878 375.918L211.453 382.468L201.878 388.725L211.453 395.111L201.878 401.384L208.25 405.419L211.453 407.447" stroke="#43ADE6" stroke-width="2"/>
<path d="M194.806 258.921L185.231 265.365L194.806 271.915L185.231 278.171L194.806 284.557L185.231 290.831L191.602 294.865L194.806 296.894" stroke="#43ADE6" stroke-width="2"/>
<path d="M194.806 406.325L185.231 412.769L194.806 419.319L185.231 425.575L194.806 431.961L185.231 438.235L191.602 442.269L194.806 444.298" stroke="#43ADE6" stroke-width="2"/>
<path d="M194.806 295.772L185.231 302.216L194.806 308.765L185.231 315.022L194.806 321.408L185.231 327.682L191.602 331.716L194.806 333.745" stroke="#43ADE6" stroke-width="2"/>
<path d="M194.806 443.176L185.231 449.62L194.806 456.17L185.231 462.426L194.806 468.812L185.231 475.086L191.602 479.12L194.806 481.149" stroke="#43ADE6" stroke-width="2"/>
<path d="M194.806 332.623L185.231 339.067L194.806 345.617L185.231 351.873L194.806 358.259L185.231 364.533L191.602 368.567L194.806 370.596" stroke="#43ADE6" stroke-width="2"/>
<path d="M194.806 480.027L185.231 486.471L194.806 493.02L185.231 499.277L194.806 505.663L185.231 511.937L191.602 515.971L194.806 518" stroke="#43ADE6" stroke-width="2"/>
<path d="M194.806 369.474L185.231 375.918L194.806 382.468L185.231 388.724L194.806 395.11L185.231 401.384L191.602 405.418L194.806 407.447" stroke="#43ADE6" stroke-width="2"/>
<path d="M178.158 258.921L168.583 265.365L178.158 271.915L168.583 278.171L178.158 284.557L168.583 290.831L174.955 294.865L178.158 296.894" stroke="#43ADE6" stroke-width="2"/>
<path d="M178.158 406.325L168.583 412.769L178.158 419.319L168.583 425.575L178.158 431.961L168.583 438.235L174.955 442.269L178.158 444.298" stroke="#43ADE6" stroke-width="2"/>
<path d="M178.158 295.772L168.583 302.216L178.158 308.766L168.583 315.022L178.158 321.408L168.583 327.682L174.955 331.716L178.158 333.745" stroke="#43ADE6" stroke-width="2"/>
<path d="M178.158 443.176L168.583 449.62L178.158 456.17L168.583 462.426L178.158 468.812L168.583 475.086L174.955 479.12L178.158 481.149" stroke="#43ADE6" stroke-width="2"/>
<path d="M178.158 332.624L168.583 339.067L178.158 345.617L168.583 351.874L178.158 358.259L168.583 364.533L174.955 368.568L178.158 370.596" stroke="#43ADE6" stroke-width="2"/>
<path d="M178.158 480.027L168.583 486.471L178.158 493.021L168.583 499.278L178.158 505.663L168.583 511.937L174.955 515.971L178.158 518" stroke="#43ADE6" stroke-width="2"/>
<path d="M178.158 369.474L168.583 375.918L178.158 382.468L168.583 388.725L178.158 395.11L168.583 401.384L174.955 405.418L178.158 407.447" stroke="#43ADE6" stroke-width="2"/>
<path d="M161.511 258.921L151.936 265.365L161.511 271.915L151.936 278.171L161.511 284.557L151.936 290.831L158.307 294.865L161.511 296.894" stroke="#43ADE6" stroke-width="2"/>
<path d="M161.511 406.325L151.936 412.769L161.511 419.319L151.936 425.575L161.511 431.961L151.936 438.235L158.307 442.269L161.511 444.298" stroke="#43ADE6" stroke-width="2"/>
<path d="M161.511 295.772L151.936 302.216L161.511 308.766L151.936 315.022L161.511 321.408L151.936 327.682L158.307 331.716L161.511 333.745" stroke="#43ADE6" stroke-width="2"/>
<path d="M161.511 443.176L151.936 449.62L161.511 456.17L151.936 462.426L161.511 468.812L151.936 475.086L158.307 479.12L161.511 481.149" stroke="#43ADE6" stroke-width="2"/>
<path d="M161.511 332.624L151.936 339.067L161.511 345.617L151.936 351.874L161.511 358.259L151.936 364.533L158.307 368.568L161.511 370.596" stroke="#43ADE6" stroke-width="2"/>
<path d="M161.511 480.027L151.936 486.471L161.511 493.021L151.936 499.278L161.511 505.663L151.936 511.937L158.307 515.971L161.511 518" stroke="#43ADE6" stroke-width="2"/>
<path d="M161.511 369.474L151.936 375.918L161.511 382.468L151.936 388.725L161.511 395.11L151.936 401.384L158.307 405.418L161.511 407.447" stroke="#43ADE6" stroke-width="2"/>
<path d="M144.863 258.921L135.288 265.365L144.863 271.915L135.288 278.171L144.863 284.557L135.288 290.831L141.66 294.865L144.863 296.894" stroke="#43ADE6" stroke-width="2"/>
<path d="M144.863 406.325L135.288 412.769L144.863 419.319L135.288 425.575L144.863 431.961L135.288 438.235L141.66 442.269L144.863 444.298" stroke="#43ADE6" stroke-width="2"/>
<path d="M144.863 295.772L135.288 302.216L144.863 308.766L135.288 315.022L144.863 321.408L135.288 327.682L141.66 331.716L144.863 333.745" stroke="#43ADE6" stroke-width="2"/>
<path d="M144.863 443.176L135.288 449.62L144.863 456.17L135.288 462.426L144.863 468.812L135.288 475.086L141.66 479.12L144.863 481.149" stroke="#43ADE6" stroke-width="2"/>
<path d="M144.863 332.624L135.288 339.067L144.863 345.617L135.288 351.874L144.863 358.259L135.288 364.533L141.66 368.568L144.863 370.596" stroke="#43ADE6" stroke-width="2"/>
<path d="M144.863 480.027L135.288 486.471L144.863 493.021L135.288 499.278L144.863 505.663L135.288 511.937L141.66 515.971L144.863 518" stroke="#43ADE6" stroke-width="2"/>
<path d="M144.863 369.474L135.288 375.918L144.863 382.468L135.288 388.725L144.863 395.11L135.288 401.384L141.66 405.418L144.863 407.447" stroke="#43ADE6" stroke-width="2"/>
<path d="M128.216 258.921L118.641 265.365L128.216 271.915L118.641 278.171L128.216 284.557L118.641 290.831L125.012 294.865L128.216 296.894" stroke="#43ADE6" stroke-width="2"/>
<path d="M128.216 406.325L118.641 412.769L128.216 419.319L118.641 425.575L128.216 431.961L118.641 438.235L125.012 442.269L128.216 444.298" stroke="#43ADE6" stroke-width="2"/>
<path d="M128.216 295.772L118.641 302.216L128.216 308.766L118.641 315.022L128.216 321.408L118.641 327.682L125.012 331.716L128.216 333.745" stroke="#43ADE6" stroke-width="2"/>
<path d="M128.216 443.176L118.641 449.62L128.216 456.17L118.641 462.426L128.216 468.812L118.641 475.086L125.012 479.12L128.216 481.149" stroke="#43ADE6" stroke-width="2"/>
<path d="M128.216 332.624L118.641 339.067L128.216 345.617L118.641 351.874L128.216 358.26L118.641 364.533L125.012 368.568L128.216 370.596" stroke="#43ADE6" stroke-width="2"/>
<path d="M128.216 480.027L118.641 486.471L128.216 493.021L118.641 499.278L128.216 505.663L118.641 511.937L125.012 515.971L128.216 518" stroke="#43ADE6" stroke-width="2"/>
<path d="M128.216 369.474L118.641 375.918L128.216 382.468L118.641 388.725L128.216 395.11L118.641 401.384L125.012 405.418L128.216 407.447" stroke="#43ADE6" stroke-width="2"/>
<path d="M111.568 258.921L101.994 265.365L111.568 271.915L101.994 278.171L111.568 284.557L101.994 290.831L108.365 294.865L111.568 296.894" stroke="#43ADE6" stroke-width="2"/>
<path d="M111.568 406.325L101.994 412.769L111.568 419.319L101.994 425.575L111.568 431.961L101.994 438.235L108.365 442.269L111.568 444.298" stroke="#43ADE6" stroke-width="2"/>
<path d="M111.568 295.772L101.994 302.216L111.568 308.766L101.994 315.022L111.568 321.408L101.994 327.682L108.365 331.716L111.568 333.745" stroke="#43ADE6" stroke-width="2"/>
<path d="M111.568 443.176L101.994 449.62L111.568 456.17L101.994 462.426L111.568 468.812L101.994 475.086L108.365 479.12L111.568 481.149" stroke="#43ADE6" stroke-width="2"/>
<path d="M111.568 332.623L101.994 339.067L111.568 345.616L101.994 351.873L111.568 358.259L101.994 364.533L108.365 368.567L111.568 370.596" stroke="#43ADE6" stroke-width="2"/>
<path d="M111.568 480.027L101.994 486.471L111.568 493.021L101.994 499.278L111.568 505.663L101.994 511.937L108.365 515.971L111.568 518" stroke="#43ADE6" stroke-width="2"/>
<path d="M111.568 369.474L101.994 375.918L111.568 382.468L101.994 388.725L111.568 395.11L101.994 401.384L108.365 405.418L111.568 407.447" stroke="#43ADE6" stroke-width="2"/>
<path d="M94.9209 258.921L85.3461 265.365L94.9209 271.915L85.3461 278.171L94.9209 284.557L85.3461 290.831L91.7173 294.865L94.9209 296.894" stroke="#43ADE6" stroke-width="2"/>
<path d="M94.9209 406.325L85.3461 412.769L94.9209 419.319L85.3461 425.575L94.9209 431.961L85.3461 438.235L91.7173 442.269L94.9209 444.298" stroke="#43ADE6" stroke-width="2"/>
<path d="M94.9209 295.772L85.3461 302.216L94.9209 308.766L85.3461 315.022L94.9209 321.408L85.3461 327.682L91.7173 331.716L94.9209 333.745" stroke="#43ADE6" stroke-width="2"/>
<path d="M94.9209 443.176L85.3461 449.62L94.9209 456.17L85.3461 462.426L94.9209 468.812L85.3461 475.086L91.7173 479.12L94.9209 481.149" stroke="#43ADE6" stroke-width="2"/>
<path d="M94.9209 332.623L85.3461 339.067L94.9209 345.616L85.3461 351.873L94.9209 358.259L85.3461 364.533L91.7173 368.567L94.9209 370.596" stroke="#43ADE6" stroke-width="2"/>
<path d="M94.9209 480.027L85.3461 486.471L94.9209 493.021L85.3461 499.278L94.9209 505.663L85.3461 511.937L91.7173 515.971L94.9209 518" stroke="#43ADE6" stroke-width="2"/>
<path d="M94.9209 369.474L85.3461 375.918L94.9209 382.468L85.3461 388.725L94.9209 395.11L85.3461 401.384L91.7173 405.418L94.9209 407.447" stroke="#43ADE6" stroke-width="2"/>
<path d="M78.2734 258.921L68.6986 265.365L78.2734 271.915L68.6986 278.171L78.2734 284.557L68.6986 290.831L75.0698 294.865L78.2734 296.894" stroke="#43ADE6" stroke-width="2"/>
<path d="M78.2734 406.325L68.6986 412.769L78.2734 419.319L68.6986 425.575L78.2734 431.961L68.6986 438.235L75.0698 442.269L78.2734 444.298" stroke="#43ADE6" stroke-width="2"/>
<path d="M78.2734 295.772L68.6986 302.216L78.2734 308.766L68.6986 315.022L78.2734 321.408L68.6986 327.682L75.0698 331.716L78.2734 333.745" stroke="#43ADE6" stroke-width="2"/>
<path d="M78.2734 443.176L68.6986 449.62L78.2734 456.17L68.6986 462.426L78.2734 468.812L68.6986 475.086L75.0698 479.12L78.2734 481.149" stroke="#43ADE6" stroke-width="2"/>
<path d="M78.2734 332.624L68.6986 339.067L78.2734 345.617L68.6986 351.874L78.2734 358.26L68.6986 364.533L75.0698 368.568L78.2734 370.596" stroke="#43ADE6" stroke-width="2"/>
<path d="M78.2734 480.027L68.6986 486.471L78.2734 493.021L68.6986 499.278L78.2734 505.663L68.6986 511.937L75.0698 515.971L78.2734 518" stroke="#43ADE6" stroke-width="2"/>
<path d="M78.2734 369.474L68.6986 375.918L78.2734 382.468L68.6986 388.725L78.2734 395.11L68.6986 401.384L75.0698 405.418L78.2734 407.447" stroke="#43ADE6" stroke-width="2"/>
<path d="M61.627 258.921L52.0521 265.365L61.627 271.915L52.0521 278.171L61.627 284.557L52.0521 290.831L58.4234 294.865L61.627 296.894" stroke="#43ADE6" stroke-width="2"/>
<path d="M61.627 406.325L52.0521 412.769L61.627 419.319L52.0521 425.575L61.627 431.961L52.0521 438.235L58.4234 442.269L61.627 444.298" stroke="#43ADE6" stroke-width="2"/>
<path d="M61.627 295.772L52.0521 302.216L61.627 308.766L52.0521 315.022L61.627 321.408L52.0521 327.682L58.4234 331.716L61.627 333.745" stroke="#43ADE6" stroke-width="2"/>
<path d="M61.627 443.176L52.0521 449.62L61.627 456.17L52.0521 462.426L61.627 468.812L52.0521 475.086L58.4234 479.12L61.627 481.149" stroke="#43ADE6" stroke-width="2"/>
<path d="M61.627 332.623L52.0521 339.067L61.627 345.616L52.0521 351.873L61.627 358.259L52.0521 364.533L58.4234 368.567L61.627 370.596" stroke="#43ADE6" stroke-width="2"/>
<path d="M61.627 480.027L52.0521 486.471L61.627 493.021L52.0521 499.278L61.627 505.663L52.0521 511.937L58.4234 515.971L61.627 518" stroke="#43ADE6" stroke-width="2"/>
<path d="M61.627 369.474L52.0521 375.918L61.627 382.468L52.0521 388.725L61.627 395.11L52.0521 401.384L58.4234 405.418L61.627 407.447" stroke="#43ADE6" stroke-width="2"/>
<path d="M44.9795 258.921L35.4047 265.365L44.9795 271.915L35.4047 278.171L44.9795 284.557L35.4047 290.831L41.7759 294.865L44.9795 296.894" stroke="#43ADE6" stroke-width="2"/>
<path d="M44.9795 406.325L35.4047 412.769L44.9795 419.319L35.4047 425.575L44.9795 431.961L35.4047 438.235L41.7759 442.269L44.9795 444.298" stroke="#43ADE6" stroke-width="2"/>
<path d="M44.9795 295.772L35.4047 302.216L44.9795 308.766L35.4047 315.022L44.9795 321.408L35.4047 327.682L41.7759 331.716L44.9795 333.745" stroke="#43ADE6" stroke-width="2"/>
<path d="M44.9795 443.176L35.4047 449.62L44.9795 456.17L35.4047 462.426L44.9795 468.812L35.4047 475.086L41.7759 479.12L44.9795 481.149" stroke="#43ADE6" stroke-width="2"/>
<path d="M44.9795 332.623L35.4047 339.067L44.9795 345.616L35.4047 351.873L44.9795 358.259L35.4047 364.533L41.7759 368.567L44.9795 370.596" stroke="#43ADE6" stroke-width="2"/>
<path d="M44.9795 480.027L35.4047 486.471L44.9795 493.021L35.4047 499.278L44.9795 505.663L35.4047 511.937L41.7759 515.971L44.9795 518" stroke="#43ADE6" stroke-width="2"/>
<path d="M44.9795 369.474L35.4047 375.918L44.9795 382.468L35.4047 388.725L44.9795 395.11L35.4047 401.384L41.7759 405.418L44.9795 407.447" stroke="#43ADE6" stroke-width="2"/>
<path d="M28.332 258.921L18.7572 265.365L28.332 271.915L18.7572 278.171L28.332 284.557L18.7572 290.831L25.1284 294.865L28.332 296.894" stroke="#43ADE6" stroke-width="2"/>
<path d="M28.332 406.325L18.7572 412.769L28.332 419.319L18.7572 425.575L28.332 431.961L18.7572 438.235L25.1284 442.269L28.332 444.298" stroke="#43ADE6" stroke-width="2"/>
<path d="M28.332 295.772L18.7572 302.216L28.332 308.766L18.7572 315.022L28.332 321.408L18.7572 327.682L25.1284 331.716L28.332 333.745" stroke="#43ADE6" stroke-width="2"/>
<path d="M28.332 443.176L18.7572 449.62L28.332 456.17L18.7572 462.426L28.332 468.812L18.7572 475.086L25.1284 479.12L28.332 481.149" stroke="#43ADE6" stroke-width="2"/>
<path d="M28.332 332.624L18.7572 339.067L28.332 345.617L18.7572 351.874L28.332 358.26L18.7572 364.533L25.1284 368.568L28.332 370.596" stroke="#43ADE6" stroke-width="2"/>
<path d="M28.332 480.027L18.7572 486.471L28.332 493.021L18.7572 499.278L28.332 505.663L18.7572 511.937L25.1284 515.971L28.332 518" stroke="#43ADE6" stroke-width="2"/>
<path d="M28.332 369.474L18.7572 375.918L28.332 382.468L18.7572 388.725L28.332 395.11L18.7572 401.384L25.1284 405.418L28.332 407.447" stroke="#43ADE6" stroke-width="2"/>
<path d="M11.6846 258.921L2.10974 265.365L11.6846 271.915L2.10974 278.171L11.6846 284.557L2.10974 290.831L8.48098 294.865L11.6846 296.894" stroke="#43ADE6" stroke-width="2"/>
<path d="M11.6846 406.325L2.10975 412.769L11.6846 419.319L2.10975 425.575L11.6846 431.961L2.10975 438.235L8.48098 442.269L11.6846 444.298" stroke="#43ADE6" stroke-width="2"/>
<path d="M11.6846 295.772L2.10975 302.216L11.6846 308.766L2.10975 315.022L11.6846 321.408L2.10975 327.682L8.48098 331.716L11.6846 333.745" stroke="#43ADE6" stroke-width="2"/>
<path d="M11.6846 443.176L2.10975 449.62L11.6846 456.17L2.10975 462.426L11.6846 468.812L2.10975 475.086L8.48098 479.12L11.6846 481.149" stroke="#43ADE6" stroke-width="2"/>
<path d="M11.6846 332.623L2.10975 339.067L11.6846 345.616L2.10975 351.873L11.6846 358.259L2.10975 364.533L8.48098 368.567L11.6846 370.596" stroke="#43ADE6" stroke-width="2"/>
<path d="M11.6846 480.027L2.10975 486.471L11.6846 493.021L2.10975 499.278L11.6846 505.663L2.10975 511.937L8.48098 515.971L11.6846 518" stroke="#43ADE6" stroke-width="2"/>
<path d="M11.6846 369.474L2.10975 375.918L11.6846 382.468L2.10975 388.725L11.6846 395.11L2.10975 401.384L8.48098 405.418L11.6846 407.447" stroke="#43ADE6" stroke-width="2"/>
</g>
</svg>
