<svg width="14" height="14" viewBox="0 0 14 14" fill="none" xmlns="http://www.w3.org/2000/svg">
<path d="M3.87265 10.1265C3.98433 10.2382 4.13079 10.294 4.27718 10.294C4.42357 10.294 4.57003 10.2382 4.68171 10.1265L10.1254 4.6828C10.3489 4.45929 10.3489 4.0971 10.1254 3.87366C9.90191 3.65031 9.53972 3.65031 9.31629 3.87366L3.87265 9.31737C3.64922 9.54081 3.64922 9.903 3.87265 10.1265Z" fill="#0764E3"/>
<path d="M12.8476 1.1518C12.1049 0.40903 11.1175 0 10.0671 0C9.01678 7.62831e-05 8.02937 0.409106 7.28668 1.1518L5.40683 3.03157C5.1834 3.25507 5.1834 3.61727 5.40683 3.84078C5.63019 4.06406 5.99246 4.06421 6.21589 3.84078L8.09581 1.96086C8.62239 1.43435 9.32244 1.14425 10.0672 1.14425C10.8119 1.14425 11.5119 1.43427 12.0385 1.96086C12.5651 2.48736 12.8551 3.18756 12.8551 3.93224C12.8551 4.67691 12.5651 5.37696 12.0385 5.90355L10.1587 7.78339C9.93522 8.0069 9.93522 8.36909 10.1587 8.59252C10.2704 8.7042 10.4169 8.76004 10.5633 8.76004C10.7096 8.76004 10.8561 8.7042 10.9679 8.59252L12.8476 6.71268C13.5903 5.96999 13.9994 4.9825 13.9994 3.93224C13.9994 2.8819 13.5904 1.89441 12.8476 1.1518Z" fill="#0764E3"/>
<path d="M7.7825 10.1593L5.90265 12.0393C5.37607 12.5658 4.67595 12.8558 3.93135 12.8558C3.18667 12.8558 2.48662 12.5659 1.96004 12.0393C0.873006 10.9523 0.873006 9.18357 1.96004 8.09653L3.83988 6.21669C4.06332 5.99318 4.06332 5.63099 3.83988 5.40755C3.61645 5.1842 3.25418 5.1842 3.03075 5.40755L1.15083 7.2874C-0.382308 8.82061 -0.382308 11.3152 1.15083 12.8484C1.89352 13.591 2.88093 14.0001 3.93127 14C4.98161 14 5.96902 13.591 6.71171 12.8483L8.59171 10.9684C8.81514 10.7449 8.81514 10.3827 8.59171 10.1592C8.3682 9.93602 8.00601 9.93587 7.7825 10.1593Z" fill="#0764E3"/>
</svg>
