<svg width="76" height="75" viewBox="0 0 76 75" fill="none" xmlns="http://www.w3.org/2000/svg">
<circle cx="38.0375" cy="37.7079" r="37.1" fill="#F3B99F"/>
<path d="M37.1589 50.7316H33.9914C33.6297 50.7316 33.3381 50.6441 33.1164 50.4691C32.8947 50.2824 32.7256 50.0549 32.6089 49.7866L30.5089 44.2216H19.6589L17.5589 49.7866C17.4656 50.0199 17.3022 50.2357 17.0689 50.4341C16.8356 50.6324 16.5439 50.7316 16.1939 50.7316H13.0264L23.0189 25.5316H27.1664L37.1589 50.7316ZM20.7614 41.2816H29.4064L25.9414 32.0766C25.8014 31.7382 25.6556 31.3357 25.5039 30.8691C25.3639 30.4024 25.2239 29.9007 25.0839 29.3641C24.9439 29.9124 24.7981 30.4199 24.6464 30.8866C24.5064 31.3416 24.3722 31.7441 24.2439 32.0941L20.7614 41.2816ZM42.2347 25.5316C42.4097 25.5316 42.5556 25.5432 42.6722 25.5666C42.8006 25.5782 42.9172 25.6074 43.0222 25.6541C43.1272 25.7007 43.2264 25.7707 43.3197 25.8641C43.4131 25.9574 43.5122 26.0741 43.6172 26.2141L57.4772 44.0116C57.4422 43.6499 57.4131 43.2941 57.3897 42.9441C57.3781 42.5941 57.3722 42.2674 57.3722 41.9641V25.5316H60.9597V50.7316H58.8772C58.5622 50.7316 58.2939 50.6791 58.0722 50.5741C57.8506 50.4574 57.6406 50.2707 57.4422 50.0141L43.5997 32.2341C43.6347 32.5724 43.6581 32.9107 43.6697 33.2491C43.6931 33.5757 43.7047 33.8791 43.7047 34.1591V50.7316H40.0997V25.5316H42.2347Z" fill="white"/>
</svg>
